<?xml version="1.0" encoding="utf-8"?>
<!-- Generator: Adobe Illustrator 16.0.0, SVG Export Plug-In . SVG Version: 6.00 Build 0)  -->
<!DOCTYPE svg PUBLIC "-//W3C//DTD SVG 1.1//EN" "http://www.w3.org/Graphics/SVG/1.1/DTD/svg11.dtd">
<svg version="1.1" id="Layer_1" xmlns="http://www.w3.org/2000/svg" xmlns:xlink="http://www.w3.org/1999/xlink" x="0px" y="0px"
	 width="1226px" height="715px" viewBox="0 0 1226 715" enable-background="new 0 0 1226 715" xml:space="preserve">
<g>
	<g>
		<defs>
			<rect id="SVGID_1_" width="1226" height="715"/>
		</defs>
		<clipPath id="SVGID_2_">
			<use xlink:href="#SVGID_1_"  overflow="visible"/>
		</clipPath>
		<g opacity="0.79" clip-path="url(#SVGID_2_)">
			<g>
				<defs>
					<rect id="SVGID_3_" x="297.302" y="132.694" width="587.5" height="587.5"/>
				</defs>
				<clipPath id="SVGID_4_">
					<use xlink:href="#SVGID_3_"  overflow="visible"/>
				</clipPath>
				<path clip-path="url(#SVGID_4_)" fill="#F9A326" d="M884.802,426.443c0,162.234-131.517,293.75-293.75,293.75
					c-162.234,0-293.75-131.516-293.75-293.75c0-162.232,131.516-293.75,293.75-293.75
					C753.285,132.694,884.802,264.211,884.802,426.443"/>
			</g>
		</g>
	</g>
	<rect x="643.499" y="404" fill="#517DDF" width="1.001" height="311"/>
	<rect x="688" y="404" fill="#517DDF" width="1" height="311"/>
	<rect x="732.499" y="404" fill="#517DDF" width="1" height="311"/>
	<rect x="777" y="404" fill="#517DDF" width="1" height="311"/>
	<rect x="821.499" y="404" fill="#517DDF" width="1" height="311"/>
	<rect x="866" y="404" fill="#517DDF" width="1" height="311"/>
	<rect x="910.5" y="404" fill="#517DDF" width="1" height="311"/>
	<rect x="955" y="404" fill="#517DDF" width="1" height="311"/>
	<rect x="592.751" y="403.749" fill="#517DDF" width="362.249" height="1"/>
	<rect x="592.751" y="448.249" fill="#517DDF" width="362.249" height="1"/>
	<rect x="592.751" y="492.748" fill="#517DDF" width="362.249" height="1.001"/>
	<rect x="592.751" y="537.249" fill="#517DDF" width="362.249" height="1"/>
	<rect x="592.751" y="581.749" fill="#517DDF" width="362.249" height="1"/>
	<rect x="592.751" y="626.249" fill="#517DDF" width="362.249" height="1"/>
	<rect x="592.751" y="670.749" fill="#517DDF" width="362.249" height="1"/>
	<g>
		<defs>
			<rect id="SVGID_5_" width="1226" height="715"/>
		</defs>
		<clipPath id="SVGID_6_">
			<use xlink:href="#SVGID_5_"  overflow="visible"/>
		</clipPath>
		<path clip-path="url(#SVGID_6_)" fill="#91C6C6" d="M899.99,179.98c7.616-23.162,27.475-38.333,48.049-38.717
			c-9.325-27.464-30.464-52.829-47.224-57.795c-13.29-3.938-23.134-3.321-29.58-1.775c-5.146,1.233-9.621,4.379-12.59,8.759
			l-0.153,0.225c-5.616,8.286-4.535,19.19,2.155,26.636c6.832,7.602,9.771,19.625-10.894,35.522
			c-18.783,14.448-103.5,72.398-103.5,72.398l8.904,29.678c0,0,87.013-15.24,144.964-37.096
			C896.053,206.416,895.688,193.066,899.99,179.98"/>
		<path clip-path="url(#SVGID_6_)" fill="#00B0AA" d="M949.95,185.592c4.798-13.366,3.237-29.166-1.911-44.329
			c-20.574,0.385-40.433,15.556-48.049,38.718c-4.303,13.086-3.938,26.435,0.132,37.835
			C925.817,208.124,945.807,197.134,949.95,185.592"/>
		<path clip-path="url(#SVGID_6_)" fill="#517DDF" d="M842.277,240.358c-0.168,0-0.319-0.112-0.363-0.282
			c-0.051-0.2,0.07-0.405,0.27-0.456c47.234-12.114,105.072-30.827,112.383-51.187c3.325-9.269,5.451-25.122-3.314-48.012
			c-0.073-0.193,0.023-0.41,0.217-0.484c0.19-0.074,0.41,0.023,0.484,0.216c8.848,23.104,6.688,39.145,3.317,48.533
			c-7.42,20.67-65.49,39.502-112.899,51.66C842.339,240.354,842.308,240.358,842.277,240.358"/>
		<path clip-path="url(#SVGID_6_)" fill="#517DDF" d="M767.029,212.128c-0.081,0-0.16-0.039-0.208-0.111
			c-0.077-0.115-0.046-0.27,0.069-0.347c0.757-0.507,75.941-50.877,92.54-63.378c10.233-7.708,14.974-15.227,14.087-22.346
			c-1.396-11.198-16.467-17.648-16.618-17.712c-0.127-0.053-0.188-0.2-0.134-0.327c0.054-0.128,0.198-0.187,0.326-0.134
			c0.155,0.065,15.488,6.625,16.922,18.11c0.912,7.31-3.895,14.984-14.282,22.808c-16.61,12.51-91.806,62.887-92.563,63.395
			C767.125,212.114,767.077,212.128,767.029,212.128"/>
		<path clip-path="url(#SVGID_6_)" fill="#F95F30" d="M845.5,74.5l15-6l4,6c0,0,34-3,59,11S980.613,241.607,941,295
			c-23,31-66,1-66,1s-56.991-114.714-36-168c13-33,9.5-42.5,9.5-42.5L845.5,74.5z"/>
		<rect x="193.658" y="404" clip-path="url(#SVGID_6_)" fill="#2A378A" width="450.342" height="310"/>
		<rect x="49.379" y="276.334" clip-path="url(#SVGID_6_)" fill="#FFFFFF" width="540.894" height="386.353"/>
		<path clip-path="url(#SVGID_6_)" fill="#2A3258" d="M590.523,662.937H49.129V276.084h541.394V662.937z M49.629,662.437h540.394
			V276.584H49.629V662.437z"/>
		<rect x="49.379" y="334.642" clip-path="url(#SVGID_6_)" fill="#2A3258" width="540.29" height="0.5"/>
		<path clip-path="url(#SVGID_6_)" fill="#FA7A5D" d="M91.637,304.708c0,5.001-4.054,9.055-9.055,9.055s-9.055-4.054-9.055-9.055
			s4.054-9.055,9.055-9.055S91.637,299.707,91.637,304.708"/>
		<path clip-path="url(#SVGID_6_)" fill="#0A0A0A" d="M82.582,314.263c-5.269,0-9.555-4.286-9.555-9.555
			c0-5.268,4.286-9.555,9.555-9.555s9.555,4.287,9.555,9.555C92.137,309.977,87.851,314.263,82.582,314.263 M82.582,296.153
			c-4.717,0-8.555,3.838-8.555,8.555c0,4.717,3.838,8.555,8.555,8.555c4.717,0,8.555-3.838,8.555-8.555
			C91.137,299.991,87.298,296.153,82.582,296.153"/>
		<path clip-path="url(#SVGID_6_)" fill="#F9AF2B" d="M132.687,304.708c0,5.001-4.054,9.055-9.055,9.055s-9.055-4.054-9.055-9.055
			s4.054-9.055,9.055-9.055S132.687,299.707,132.687,304.708"/>
		<path clip-path="url(#SVGID_6_)" fill="#0A0A0A" d="M123.631,314.263c-5.269,0-9.555-4.286-9.555-9.555
			c0-5.268,4.286-9.555,9.555-9.555s9.555,4.287,9.555,9.555C133.187,309.977,128.9,314.263,123.631,314.263 M123.631,296.153
			c-4.717,0-8.555,3.838-8.555,8.555c0,4.717,3.838,8.555,8.555,8.555c4.717,0,8.555-3.838,8.555-8.555
			C132.187,299.991,128.348,296.153,123.631,296.153"/>
		<path clip-path="url(#SVGID_6_)" fill="#00B0AA" d="M173.736,304.708c0,5.001-4.054,9.055-9.055,9.055s-9.055-4.054-9.055-9.055
			s4.054-9.055,9.055-9.055S173.736,299.707,173.736,304.708"/>
		<path clip-path="url(#SVGID_6_)" fill="#050505" d="M164.682,314.263c-5.269,0-9.555-4.286-9.555-9.555
			c0-5.268,4.286-9.555,9.555-9.555s9.555,4.287,9.555,9.555C174.237,309.977,169.951,314.263,164.682,314.263 M164.682,296.153
			c-4.717,0-8.555,3.838-8.555,8.555c0,4.717,3.838,8.555,8.555,8.555c4.717,0,8.555-3.838,8.555-8.555
			C173.237,299.991,169.398,296.153,164.682,296.153"/>
		<path clip-path="url(#SVGID_6_)" fill="#2A3258" d="M83.994,364.824c0,0.528-0.429,0.957-0.957,0.957s-0.957-0.429-0.957-0.957
			c0-0.527,0.429-0.956,0.957-0.956S83.994,364.297,83.994,364.824"/>
		<path clip-path="url(#SVGID_6_)" fill="#2A3258" d="M108.87,364.824c0,0.528-0.429,0.957-0.957,0.957s-0.957-0.429-0.957-0.957
			c0-0.527,0.429-0.956,0.957-0.956S108.87,364.297,108.87,364.824"/>
		<path clip-path="url(#SVGID_6_)" fill="#2A3258" d="M133.746,364.824c0,0.528-0.429,0.957-0.957,0.957s-0.957-0.429-0.957-0.957
			c0-0.527,0.429-0.956,0.957-0.956S133.746,364.297,133.746,364.824"/>
		<path clip-path="url(#SVGID_6_)" fill="#2A3258" d="M158.622,364.824c0,0.528-0.429,0.957-0.957,0.957s-0.957-0.429-0.957-0.957
			c0-0.527,0.429-0.956,0.957-0.956S158.622,364.297,158.622,364.824"/>
		<path clip-path="url(#SVGID_6_)" fill="#2A3258" d="M183.498,364.824c0,0.528-0.429,0.957-0.957,0.957s-0.957-0.429-0.957-0.957
			c0-0.527,0.429-0.956,0.957-0.956S183.498,364.297,183.498,364.824"/>
		<path clip-path="url(#SVGID_6_)" fill="#2A3258" d="M208.374,364.824c0,0.528-0.429,0.957-0.957,0.957s-0.957-0.429-0.957-0.957
			c0-0.527,0.429-0.956,0.957-0.956S208.374,364.297,208.374,364.824"/>
		<path clip-path="url(#SVGID_6_)" fill="#2A3258" d="M233.25,364.824c0,0.528-0.429,0.957-0.957,0.957s-0.957-0.429-0.957-0.957
			c0-0.527,0.429-0.956,0.957-0.956S233.25,364.297,233.25,364.824"/>
		<path clip-path="url(#SVGID_6_)" fill="#2A3258" d="M258.126,364.824c0,0.528-0.428,0.957-0.957,0.957
			c-0.528,0-0.957-0.429-0.957-0.957c0-0.527,0.429-0.956,0.957-0.956C257.698,363.868,258.126,364.297,258.126,364.824"/>
		<path clip-path="url(#SVGID_6_)" fill="#2A3258" d="M283.002,364.824c0,0.528-0.428,0.957-0.957,0.957
			c-0.528,0-0.957-0.429-0.957-0.957c0-0.527,0.429-0.956,0.957-0.956C282.574,363.868,283.002,364.297,283.002,364.824"/>
		<path clip-path="url(#SVGID_6_)" fill="#2A3258" d="M307.878,364.824c0,0.528-0.428,0.957-0.957,0.957
			c-0.528,0-0.957-0.429-0.957-0.957c0-0.527,0.429-0.956,0.957-0.956C307.45,363.868,307.878,364.297,307.878,364.824"/>
		<path clip-path="url(#SVGID_6_)" fill="#2A3258" d="M332.754,364.824c0,0.528-0.428,0.957-0.957,0.957
			c-0.528,0-0.957-0.429-0.957-0.957c0-0.527,0.429-0.956,0.957-0.956C332.326,363.868,332.754,364.297,332.754,364.824"/>
		<path clip-path="url(#SVGID_6_)" fill="#2A3258" d="M357.63,364.824c0,0.528-0.428,0.957-0.957,0.957
			c-0.528,0-0.957-0.429-0.957-0.957c0-0.527,0.429-0.956,0.957-0.956C357.202,363.868,357.63,364.297,357.63,364.824"/>
		<path clip-path="url(#SVGID_6_)" fill="#2A3258" d="M382.506,364.824c0,0.528-0.428,0.957-0.957,0.957
			c-0.528,0-0.957-0.429-0.957-0.957c0-0.527,0.429-0.956,0.957-0.956C382.078,363.868,382.506,364.297,382.506,364.824"/>
		<path clip-path="url(#SVGID_6_)" fill="#2A3258" d="M407.382,364.824c0,0.528-0.428,0.957-0.957,0.957
			c-0.528,0-0.957-0.429-0.957-0.957c0-0.527,0.429-0.956,0.957-0.956C406.954,363.868,407.382,364.297,407.382,364.824"/>
		<path clip-path="url(#SVGID_6_)" fill="#2A3258" d="M432.258,364.824c0,0.528-0.428,0.957-0.957,0.957
			c-0.528,0-0.957-0.429-0.957-0.957c0-0.527,0.429-0.956,0.957-0.956C431.83,363.868,432.258,364.297,432.258,364.824"/>
		<path clip-path="url(#SVGID_6_)" fill="#2A3258" d="M457.134,364.824c0,0.528-0.428,0.957-0.957,0.957
			c-0.528,0-0.957-0.429-0.957-0.957c0-0.527,0.429-0.956,0.957-0.956C456.706,363.868,457.134,364.297,457.134,364.824"/>
		<path clip-path="url(#SVGID_6_)" fill="#2A3258" d="M83.994,384.917c0,0.528-0.429,0.957-0.957,0.957s-0.957-0.429-0.957-0.957
			s0.429-0.957,0.957-0.957S83.994,384.389,83.994,384.917"/>
		<path clip-path="url(#SVGID_6_)" fill="#2A3258" d="M108.87,384.917c0,0.528-0.429,0.957-0.957,0.957s-0.957-0.429-0.957-0.957
			s0.429-0.957,0.957-0.957S108.87,384.389,108.87,384.917"/>
		<path clip-path="url(#SVGID_6_)" fill="#2A3258" d="M133.746,384.917c0,0.528-0.429,0.957-0.957,0.957s-0.957-0.429-0.957-0.957
			s0.429-0.957,0.957-0.957S133.746,384.389,133.746,384.917"/>
		<path clip-path="url(#SVGID_6_)" fill="#2A3258" d="M158.622,384.917c0,0.528-0.429,0.957-0.957,0.957s-0.957-0.429-0.957-0.957
			s0.429-0.957,0.957-0.957S158.622,384.389,158.622,384.917"/>
		<path clip-path="url(#SVGID_6_)" fill="#2A3258" d="M183.498,384.917c0,0.528-0.429,0.957-0.957,0.957s-0.957-0.429-0.957-0.957
			s0.429-0.957,0.957-0.957S183.498,384.389,183.498,384.917"/>
		<path clip-path="url(#SVGID_6_)" fill="#2A3258" d="M208.374,384.917c0,0.528-0.429,0.957-0.957,0.957s-0.957-0.429-0.957-0.957
			s0.429-0.957,0.957-0.957S208.374,384.389,208.374,384.917"/>
		<path clip-path="url(#SVGID_6_)" fill="#2A3258" d="M233.25,384.917c0,0.528-0.429,0.957-0.957,0.957s-0.957-0.429-0.957-0.957
			s0.429-0.957,0.957-0.957S233.25,384.389,233.25,384.917"/>
		<path clip-path="url(#SVGID_6_)" fill="#2A3258" d="M258.126,384.917c0,0.528-0.428,0.957-0.957,0.957
			c-0.528,0-0.957-0.429-0.957-0.957s0.429-0.957,0.957-0.957C257.698,383.96,258.126,384.389,258.126,384.917"/>
		<path clip-path="url(#SVGID_6_)" fill="#2A3258" d="M283.002,384.917c0,0.528-0.428,0.957-0.957,0.957
			c-0.528,0-0.957-0.429-0.957-0.957s0.429-0.957,0.957-0.957C282.574,383.96,283.002,384.389,283.002,384.917"/>
		<path clip-path="url(#SVGID_6_)" fill="#2A3258" d="M307.878,384.917c0,0.528-0.428,0.957-0.957,0.957
			c-0.528,0-0.957-0.429-0.957-0.957s0.429-0.957,0.957-0.957C307.45,383.96,307.878,384.389,307.878,384.917"/>
		<path clip-path="url(#SVGID_6_)" fill="#2A3258" d="M332.754,384.917c0,0.528-0.428,0.957-0.957,0.957
			c-0.528,0-0.957-0.429-0.957-0.957s0.429-0.957,0.957-0.957C332.326,383.96,332.754,384.389,332.754,384.917"/>
		<path clip-path="url(#SVGID_6_)" fill="#2A3258" d="M357.63,384.917c0,0.528-0.428,0.957-0.957,0.957
			c-0.528,0-0.957-0.429-0.957-0.957s0.429-0.957,0.957-0.957C357.202,383.96,357.63,384.389,357.63,384.917"/>
		<path clip-path="url(#SVGID_6_)" fill="#2A3258" d="M382.506,384.917c0,0.528-0.428,0.957-0.957,0.957
			c-0.528,0-0.957-0.429-0.957-0.957s0.429-0.957,0.957-0.957C382.078,383.96,382.506,384.389,382.506,384.917"/>
		<path clip-path="url(#SVGID_6_)" fill="#2A3258" d="M407.382,384.917c0,0.528-0.428,0.957-0.957,0.957
			c-0.528,0-0.957-0.429-0.957-0.957s0.429-0.957,0.957-0.957C406.954,383.96,407.382,384.389,407.382,384.917"/>
		<path clip-path="url(#SVGID_6_)" fill="#2A3258" d="M432.258,384.917c0,0.528-0.428,0.957-0.957,0.957
			c-0.528,0-0.957-0.429-0.957-0.957s0.429-0.957,0.957-0.957C431.83,383.96,432.258,384.389,432.258,384.917"/>
		<path clip-path="url(#SVGID_6_)" fill="#2A3258" d="M457.134,384.917c0,0.528-0.428,0.957-0.957,0.957
			c-0.528,0-0.957-0.429-0.957-0.957s0.429-0.957,0.957-0.957C456.706,383.96,457.134,384.389,457.134,384.917"/>
		<path clip-path="url(#SVGID_6_)" fill="#2A3258" d="M83.994,405.01c0,0.527-0.429,0.957-0.957,0.957s-0.957-0.43-0.957-0.957
			c0-0.528,0.429-0.957,0.957-0.957S83.994,404.481,83.994,405.01"/>
		<path clip-path="url(#SVGID_6_)" fill="#2A3258" d="M108.87,405.01c0,0.527-0.429,0.957-0.957,0.957s-0.957-0.43-0.957-0.957
			c0-0.528,0.429-0.957,0.957-0.957S108.87,404.481,108.87,405.01"/>
		<path clip-path="url(#SVGID_6_)" fill="#2A3258" d="M133.746,405.01c0,0.527-0.429,0.957-0.957,0.957s-0.957-0.43-0.957-0.957
			c0-0.528,0.429-0.957,0.957-0.957S133.746,404.481,133.746,405.01"/>
		<path clip-path="url(#SVGID_6_)" fill="#2A3258" d="M158.622,405.01c0,0.527-0.429,0.957-0.957,0.957s-0.957-0.43-0.957-0.957
			c0-0.528,0.429-0.957,0.957-0.957S158.622,404.481,158.622,405.01"/>
		<path clip-path="url(#SVGID_6_)" fill="#2A3258" d="M183.498,405.01c0,0.527-0.429,0.957-0.957,0.957s-0.957-0.43-0.957-0.957
			c0-0.528,0.429-0.957,0.957-0.957S183.498,404.481,183.498,405.01"/>
		<path clip-path="url(#SVGID_6_)" fill="#2A3258" d="M208.374,405.01c0,0.527-0.429,0.957-0.957,0.957s-0.957-0.43-0.957-0.957
			c0-0.528,0.429-0.957,0.957-0.957S208.374,404.481,208.374,405.01"/>
		<path clip-path="url(#SVGID_6_)" fill="#2A3258" d="M233.25,405.01c0,0.527-0.429,0.957-0.957,0.957s-0.957-0.43-0.957-0.957
			c0-0.528,0.429-0.957,0.957-0.957S233.25,404.481,233.25,405.01"/>
		<path clip-path="url(#SVGID_6_)" fill="#2A3258" d="M258.126,405.01c0,0.527-0.428,0.957-0.957,0.957
			c-0.528,0-0.957-0.43-0.957-0.957c0-0.528,0.429-0.957,0.957-0.957C257.698,404.053,258.126,404.481,258.126,405.01"/>
		<path clip-path="url(#SVGID_6_)" fill="#2A3258" d="M283.002,405.01c0,0.527-0.428,0.957-0.957,0.957
			c-0.528,0-0.957-0.43-0.957-0.957c0-0.528,0.429-0.957,0.957-0.957C282.574,404.053,283.002,404.481,283.002,405.01"/>
		<path clip-path="url(#SVGID_6_)" fill="#2A3258" d="M307.878,405.01c0,0.527-0.428,0.957-0.957,0.957
			c-0.528,0-0.957-0.43-0.957-0.957c0-0.528,0.429-0.957,0.957-0.957C307.45,404.053,307.878,404.481,307.878,405.01"/>
		<path clip-path="url(#SVGID_6_)" fill="#2A3258" d="M332.754,405.01c0,0.527-0.428,0.957-0.957,0.957
			c-0.528,0-0.957-0.43-0.957-0.957c0-0.528,0.429-0.957,0.957-0.957C332.326,404.053,332.754,404.481,332.754,405.01"/>
		<path clip-path="url(#SVGID_6_)" fill="#2A3258" d="M357.63,405.01c0,0.527-0.428,0.957-0.957,0.957
			c-0.528,0-0.957-0.43-0.957-0.957c0-0.528,0.429-0.957,0.957-0.957C357.202,404.053,357.63,404.481,357.63,405.01"/>
		<path clip-path="url(#SVGID_6_)" fill="#2A3258" d="M382.506,405.01c0,0.527-0.428,0.957-0.957,0.957
			c-0.528,0-0.957-0.43-0.957-0.957c0-0.528,0.429-0.957,0.957-0.957C382.078,404.053,382.506,404.481,382.506,405.01"/>
		<path clip-path="url(#SVGID_6_)" fill="#2A3258" d="M407.382,405.01c0,0.527-0.428,0.957-0.957,0.957
			c-0.528,0-0.957-0.43-0.957-0.957c0-0.528,0.429-0.957,0.957-0.957C406.954,404.053,407.382,404.481,407.382,405.01"/>
		<path clip-path="url(#SVGID_6_)" fill="#2A3258" d="M432.258,405.01c0,0.527-0.428,0.957-0.957,0.957
			c-0.528,0-0.957-0.43-0.957-0.957c0-0.528,0.429-0.957,0.957-0.957C431.83,404.053,432.258,404.481,432.258,405.01"/>
		<path clip-path="url(#SVGID_6_)" fill="#2A3258" d="M457.134,405.01c0,0.527-0.428,0.957-0.957,0.957
			c-0.528,0-0.957-0.43-0.957-0.957c0-0.528,0.429-0.957,0.957-0.957C456.706,404.053,457.134,404.481,457.134,405.01"/>
		<path clip-path="url(#SVGID_6_)" fill="#2A3258" d="M83.994,425.102c0,0.528-0.429,0.957-0.957,0.957s-0.957-0.429-0.957-0.957
			s0.429-0.957,0.957-0.957S83.994,424.573,83.994,425.102"/>
		<path clip-path="url(#SVGID_6_)" fill="#2A3258" d="M108.87,425.102c0,0.528-0.429,0.957-0.957,0.957s-0.957-0.429-0.957-0.957
			s0.429-0.957,0.957-0.957S108.87,424.573,108.87,425.102"/>
		<path clip-path="url(#SVGID_6_)" fill="#2A3258" d="M133.746,425.102c0,0.528-0.429,0.957-0.957,0.957s-0.957-0.429-0.957-0.957
			s0.429-0.957,0.957-0.957S133.746,424.573,133.746,425.102"/>
		<path clip-path="url(#SVGID_6_)" fill="#2A3258" d="M158.622,425.102c0,0.528-0.429,0.957-0.957,0.957s-0.957-0.429-0.957-0.957
			s0.429-0.957,0.957-0.957S158.622,424.573,158.622,425.102"/>
		<path clip-path="url(#SVGID_6_)" fill="#2A3258" d="M183.498,425.102c0,0.528-0.429,0.957-0.957,0.957s-0.957-0.429-0.957-0.957
			s0.429-0.957,0.957-0.957S183.498,424.573,183.498,425.102"/>
		<path clip-path="url(#SVGID_6_)" fill="#2A3258" d="M208.374,425.102c0,0.528-0.429,0.957-0.957,0.957s-0.957-0.429-0.957-0.957
			s0.429-0.957,0.957-0.957S208.374,424.573,208.374,425.102"/>
		<path clip-path="url(#SVGID_6_)" fill="#2A3258" d="M233.25,425.102c0,0.528-0.429,0.957-0.957,0.957s-0.957-0.429-0.957-0.957
			s0.429-0.957,0.957-0.957S233.25,424.573,233.25,425.102"/>
		<path clip-path="url(#SVGID_6_)" fill="#2A3258" d="M258.126,425.102c0,0.528-0.428,0.957-0.957,0.957
			c-0.528,0-0.957-0.429-0.957-0.957s0.429-0.957,0.957-0.957C257.698,424.145,258.126,424.573,258.126,425.102"/>
		<path clip-path="url(#SVGID_6_)" fill="#2A3258" d="M283.002,425.102c0,0.528-0.428,0.957-0.957,0.957
			c-0.528,0-0.957-0.429-0.957-0.957s0.429-0.957,0.957-0.957C282.574,424.145,283.002,424.573,283.002,425.102"/>
		<path clip-path="url(#SVGID_6_)" fill="#2A3258" d="M307.878,425.102c0,0.528-0.428,0.957-0.957,0.957
			c-0.528,0-0.957-0.429-0.957-0.957s0.429-0.957,0.957-0.957C307.45,424.145,307.878,424.573,307.878,425.102"/>
		<path clip-path="url(#SVGID_6_)" fill="#2A3258" d="M332.754,425.102c0,0.528-0.428,0.957-0.957,0.957
			c-0.528,0-0.957-0.429-0.957-0.957s0.429-0.957,0.957-0.957C332.326,424.145,332.754,424.573,332.754,425.102"/>
		<path clip-path="url(#SVGID_6_)" fill="#2A3258" d="M357.63,425.102c0,0.528-0.428,0.957-0.957,0.957
			c-0.528,0-0.957-0.429-0.957-0.957s0.429-0.957,0.957-0.957C357.202,424.145,357.63,424.573,357.63,425.102"/>
		<path clip-path="url(#SVGID_6_)" fill="#2A3258" d="M382.506,425.102c0,0.528-0.428,0.957-0.957,0.957
			c-0.528,0-0.957-0.429-0.957-0.957s0.429-0.957,0.957-0.957C382.078,424.145,382.506,424.573,382.506,425.102"/>
		<path clip-path="url(#SVGID_6_)" fill="#2A3258" d="M407.382,425.102c0,0.528-0.428,0.957-0.957,0.957
			c-0.528,0-0.957-0.429-0.957-0.957s0.429-0.957,0.957-0.957C406.954,424.145,407.382,424.573,407.382,425.102"/>
		<path clip-path="url(#SVGID_6_)" fill="#2A3258" d="M432.258,425.102c0,0.528-0.428,0.957-0.957,0.957
			c-0.528,0-0.957-0.429-0.957-0.957s0.429-0.957,0.957-0.957C431.83,424.145,432.258,424.573,432.258,425.102"/>
		<path clip-path="url(#SVGID_6_)" fill="#2A3258" d="M457.134,425.102c0,0.528-0.428,0.957-0.957,0.957
			c-0.528,0-0.957-0.429-0.957-0.957s0.429-0.957,0.957-0.957C456.706,424.145,457.134,424.573,457.134,425.102"/>
		<path clip-path="url(#SVGID_6_)" fill="#2A3258" d="M83.994,445.193c0,0.528-0.429,0.957-0.957,0.957s-0.957-0.429-0.957-0.957
			s0.429-0.957,0.957-0.957S83.994,444.665,83.994,445.193"/>
		<path clip-path="url(#SVGID_6_)" fill="#2A3258" d="M108.87,445.193c0,0.528-0.429,0.957-0.957,0.957s-0.957-0.429-0.957-0.957
			s0.429-0.957,0.957-0.957S108.87,444.665,108.87,445.193"/>
		<path clip-path="url(#SVGID_6_)" fill="#2A3258" d="M133.746,445.193c0,0.528-0.429,0.957-0.957,0.957s-0.957-0.429-0.957-0.957
			s0.429-0.957,0.957-0.957S133.746,444.665,133.746,445.193"/>
		<path clip-path="url(#SVGID_6_)" fill="#2A3258" d="M158.622,445.193c0,0.528-0.429,0.957-0.957,0.957s-0.957-0.429-0.957-0.957
			s0.429-0.957,0.957-0.957S158.622,444.665,158.622,445.193"/>
		<path clip-path="url(#SVGID_6_)" fill="#2A3258" d="M183.498,445.193c0,0.528-0.429,0.957-0.957,0.957s-0.957-0.429-0.957-0.957
			s0.429-0.957,0.957-0.957S183.498,444.665,183.498,445.193"/>
		<path clip-path="url(#SVGID_6_)" fill="#2A3258" d="M208.374,445.193c0,0.528-0.429,0.957-0.957,0.957s-0.957-0.429-0.957-0.957
			s0.429-0.957,0.957-0.957S208.374,444.665,208.374,445.193"/>
		<path clip-path="url(#SVGID_6_)" fill="#2A3258" d="M233.25,445.193c0,0.528-0.429,0.957-0.957,0.957s-0.957-0.429-0.957-0.957
			s0.429-0.957,0.957-0.957S233.25,444.665,233.25,445.193"/>
		<path clip-path="url(#SVGID_6_)" fill="#2A3258" d="M258.126,445.193c0,0.528-0.428,0.957-0.957,0.957
			c-0.528,0-0.957-0.429-0.957-0.957s0.429-0.957,0.957-0.957C257.698,444.236,258.126,444.665,258.126,445.193"/>
		<path clip-path="url(#SVGID_6_)" fill="#2A3258" d="M283.002,445.193c0,0.528-0.428,0.957-0.957,0.957
			c-0.528,0-0.957-0.429-0.957-0.957s0.429-0.957,0.957-0.957C282.574,444.236,283.002,444.665,283.002,445.193"/>
		<path clip-path="url(#SVGID_6_)" fill="#2A3258" d="M307.878,445.193c0,0.528-0.428,0.957-0.957,0.957
			c-0.528,0-0.957-0.429-0.957-0.957s0.429-0.957,0.957-0.957C307.45,444.236,307.878,444.665,307.878,445.193"/>
		<path clip-path="url(#SVGID_6_)" fill="#2A3258" d="M332.754,445.193c0,0.528-0.428,0.957-0.957,0.957
			c-0.528,0-0.957-0.429-0.957-0.957s0.429-0.957,0.957-0.957C332.326,444.236,332.754,444.665,332.754,445.193"/>
		<path clip-path="url(#SVGID_6_)" fill="#2A3258" d="M357.63,445.193c0,0.528-0.428,0.957-0.957,0.957
			c-0.528,0-0.957-0.429-0.957-0.957s0.429-0.957,0.957-0.957C357.202,444.236,357.63,444.665,357.63,445.193"/>
		<path clip-path="url(#SVGID_6_)" fill="#2A3258" d="M382.506,445.193c0,0.528-0.428,0.957-0.957,0.957
			c-0.528,0-0.957-0.429-0.957-0.957s0.429-0.957,0.957-0.957C382.078,444.236,382.506,444.665,382.506,445.193"/>
		<path clip-path="url(#SVGID_6_)" fill="#2A3258" d="M407.382,445.193c0,0.528-0.428,0.957-0.957,0.957
			c-0.528,0-0.957-0.429-0.957-0.957s0.429-0.957,0.957-0.957C406.954,444.236,407.382,444.665,407.382,445.193"/>
		<path clip-path="url(#SVGID_6_)" fill="#2A3258" d="M432.258,445.193c0,0.528-0.428,0.957-0.957,0.957
			c-0.528,0-0.957-0.429-0.957-0.957s0.429-0.957,0.957-0.957C431.83,444.236,432.258,444.665,432.258,445.193"/>
		<path clip-path="url(#SVGID_6_)" fill="#2A3258" d="M457.134,445.193c0,0.528-0.428,0.957-0.957,0.957
			c-0.528,0-0.957-0.429-0.957-0.957s0.429-0.957,0.957-0.957C456.706,444.236,457.134,444.665,457.134,445.193"/>
		<path clip-path="url(#SVGID_6_)" fill="#2A3258" d="M83.994,465.285c0,0.528-0.429,0.957-0.957,0.957s-0.957-0.429-0.957-0.957
			c0-0.527,0.429-0.957,0.957-0.957S83.994,464.758,83.994,465.285"/>
		<path clip-path="url(#SVGID_6_)" fill="#2A3258" d="M108.87,465.285c0,0.528-0.429,0.957-0.957,0.957s-0.957-0.429-0.957-0.957
			c0-0.527,0.429-0.957,0.957-0.957S108.87,464.758,108.87,465.285"/>
		<path clip-path="url(#SVGID_6_)" fill="#2A3258" d="M133.746,465.285c0,0.528-0.429,0.957-0.957,0.957s-0.957-0.429-0.957-0.957
			c0-0.527,0.429-0.957,0.957-0.957S133.746,464.758,133.746,465.285"/>
		<path clip-path="url(#SVGID_6_)" fill="#2A3258" d="M158.622,465.285c0,0.528-0.429,0.957-0.957,0.957s-0.957-0.429-0.957-0.957
			c0-0.527,0.429-0.957,0.957-0.957S158.622,464.758,158.622,465.285"/>
		<path clip-path="url(#SVGID_6_)" fill="#2A3258" d="M183.498,465.285c0,0.528-0.429,0.957-0.957,0.957s-0.957-0.429-0.957-0.957
			c0-0.527,0.429-0.957,0.957-0.957S183.498,464.758,183.498,465.285"/>
		<path clip-path="url(#SVGID_6_)" fill="#2A3258" d="M208.374,465.285c0,0.528-0.429,0.957-0.957,0.957s-0.957-0.429-0.957-0.957
			c0-0.527,0.429-0.957,0.957-0.957S208.374,464.758,208.374,465.285"/>
		<path clip-path="url(#SVGID_6_)" fill="#2A3258" d="M233.25,465.285c0,0.528-0.429,0.957-0.957,0.957s-0.957-0.429-0.957-0.957
			c0-0.527,0.429-0.957,0.957-0.957S233.25,464.758,233.25,465.285"/>
		<path clip-path="url(#SVGID_6_)" fill="#2A3258" d="M258.126,465.285c0,0.528-0.428,0.957-0.957,0.957
			c-0.528,0-0.957-0.429-0.957-0.957c0-0.527,0.429-0.957,0.957-0.957C257.698,464.328,258.126,464.758,258.126,465.285"/>
		<path clip-path="url(#SVGID_6_)" fill="#2A3258" d="M283.002,465.285c0,0.528-0.428,0.957-0.957,0.957
			c-0.528,0-0.957-0.429-0.957-0.957c0-0.527,0.429-0.957,0.957-0.957C282.574,464.328,283.002,464.758,283.002,465.285"/>
		<path clip-path="url(#SVGID_6_)" fill="#2A3258" d="M307.878,465.285c0,0.528-0.428,0.957-0.957,0.957
			c-0.528,0-0.957-0.429-0.957-0.957c0-0.527,0.429-0.957,0.957-0.957C307.45,464.328,307.878,464.758,307.878,465.285"/>
		<path clip-path="url(#SVGID_6_)" fill="#2A3258" d="M332.754,465.285c0,0.528-0.428,0.957-0.957,0.957
			c-0.528,0-0.957-0.429-0.957-0.957c0-0.527,0.429-0.957,0.957-0.957C332.326,464.328,332.754,464.758,332.754,465.285"/>
		<path clip-path="url(#SVGID_6_)" fill="#2A3258" d="M357.63,465.285c0,0.528-0.428,0.957-0.957,0.957
			c-0.528,0-0.957-0.429-0.957-0.957c0-0.527,0.429-0.957,0.957-0.957C357.202,464.328,357.63,464.758,357.63,465.285"/>
		<path clip-path="url(#SVGID_6_)" fill="#2A3258" d="M382.506,465.285c0,0.528-0.428,0.957-0.957,0.957
			c-0.528,0-0.957-0.429-0.957-0.957c0-0.527,0.429-0.957,0.957-0.957C382.078,464.328,382.506,464.758,382.506,465.285"/>
		<path clip-path="url(#SVGID_6_)" fill="#2A3258" d="M407.382,465.285c0,0.528-0.428,0.957-0.957,0.957
			c-0.528,0-0.957-0.429-0.957-0.957c0-0.527,0.429-0.957,0.957-0.957C406.954,464.328,407.382,464.758,407.382,465.285"/>
		<path clip-path="url(#SVGID_6_)" fill="#2A3258" d="M432.258,465.285c0,0.528-0.428,0.957-0.957,0.957
			c-0.528,0-0.957-0.429-0.957-0.957c0-0.527,0.429-0.957,0.957-0.957C431.83,464.328,432.258,464.758,432.258,465.285"/>
		<path clip-path="url(#SVGID_6_)" fill="#2A3258" d="M457.134,465.285c0,0.528-0.428,0.957-0.957,0.957
			c-0.528,0-0.957-0.429-0.957-0.957c0-0.527,0.429-0.957,0.957-0.957C456.706,464.328,457.134,464.758,457.134,465.285"/>
		<path clip-path="url(#SVGID_6_)" fill="#2A3258" d="M83.994,485.378c0,0.528-0.429,0.957-0.957,0.957s-0.957-0.429-0.957-0.957
			c0-0.529,0.429-0.957,0.957-0.957S83.994,484.849,83.994,485.378"/>
		<path clip-path="url(#SVGID_6_)" fill="#2A3258" d="M108.87,485.378c0,0.528-0.429,0.957-0.957,0.957s-0.957-0.429-0.957-0.957
			c0-0.529,0.429-0.957,0.957-0.957S108.87,484.849,108.87,485.378"/>
		<path clip-path="url(#SVGID_6_)" fill="#2A3258" d="M133.746,485.378c0,0.528-0.429,0.957-0.957,0.957s-0.957-0.429-0.957-0.957
			c0-0.529,0.429-0.957,0.957-0.957S133.746,484.849,133.746,485.378"/>
		<path clip-path="url(#SVGID_6_)" fill="#2A3258" d="M158.622,485.378c0,0.528-0.429,0.957-0.957,0.957s-0.957-0.429-0.957-0.957
			c0-0.529,0.429-0.957,0.957-0.957S158.622,484.849,158.622,485.378"/>
		<path clip-path="url(#SVGID_6_)" fill="#2A3258" d="M183.498,485.378c0,0.528-0.429,0.957-0.957,0.957s-0.957-0.429-0.957-0.957
			c0-0.529,0.429-0.957,0.957-0.957S183.498,484.849,183.498,485.378"/>
		<path clip-path="url(#SVGID_6_)" fill="#2A3258" d="M208.374,485.378c0,0.528-0.429,0.957-0.957,0.957s-0.957-0.429-0.957-0.957
			c0-0.529,0.429-0.957,0.957-0.957S208.374,484.849,208.374,485.378"/>
		<path clip-path="url(#SVGID_6_)" fill="#2A3258" d="M233.25,485.378c0,0.528-0.429,0.957-0.957,0.957s-0.957-0.429-0.957-0.957
			c0-0.529,0.429-0.957,0.957-0.957S233.25,484.849,233.25,485.378"/>
		<path clip-path="url(#SVGID_6_)" fill="#2A3258" d="M258.126,485.378c0,0.528-0.428,0.957-0.957,0.957
			c-0.528,0-0.957-0.429-0.957-0.957c0-0.529,0.429-0.957,0.957-0.957C257.698,484.421,258.126,484.849,258.126,485.378"/>
		<path clip-path="url(#SVGID_6_)" fill="#2A3258" d="M283.002,485.378c0,0.528-0.428,0.957-0.957,0.957
			c-0.528,0-0.957-0.429-0.957-0.957c0-0.529,0.429-0.957,0.957-0.957C282.574,484.421,283.002,484.849,283.002,485.378"/>
		<path clip-path="url(#SVGID_6_)" fill="#2A3258" d="M307.878,485.378c0,0.528-0.428,0.957-0.957,0.957
			c-0.528,0-0.957-0.429-0.957-0.957c0-0.529,0.429-0.957,0.957-0.957C307.45,484.421,307.878,484.849,307.878,485.378"/>
		<path clip-path="url(#SVGID_6_)" fill="#2A3258" d="M332.754,485.378c0,0.528-0.428,0.957-0.957,0.957
			c-0.528,0-0.957-0.429-0.957-0.957c0-0.529,0.429-0.957,0.957-0.957C332.326,484.421,332.754,484.849,332.754,485.378"/>
		<path clip-path="url(#SVGID_6_)" fill="#2A3258" d="M357.63,485.378c0,0.528-0.428,0.957-0.957,0.957
			c-0.528,0-0.957-0.429-0.957-0.957c0-0.529,0.429-0.957,0.957-0.957C357.202,484.421,357.63,484.849,357.63,485.378"/>
		<path clip-path="url(#SVGID_6_)" fill="#2A3258" d="M382.506,485.378c0,0.528-0.428,0.957-0.957,0.957
			c-0.528,0-0.957-0.429-0.957-0.957c0-0.529,0.429-0.957,0.957-0.957C382.078,484.421,382.506,484.849,382.506,485.378"/>
		<path clip-path="url(#SVGID_6_)" fill="#2A3258" d="M407.382,485.378c0,0.528-0.428,0.957-0.957,0.957
			c-0.528,0-0.957-0.429-0.957-0.957c0-0.529,0.429-0.957,0.957-0.957C406.954,484.421,407.382,484.849,407.382,485.378"/>
		<path clip-path="url(#SVGID_6_)" fill="#2A3258" d="M432.258,485.378c0,0.528-0.428,0.957-0.957,0.957
			c-0.528,0-0.957-0.429-0.957-0.957c0-0.529,0.429-0.957,0.957-0.957C431.83,484.421,432.258,484.849,432.258,485.378"/>
		<path clip-path="url(#SVGID_6_)" fill="#2A3258" d="M457.134,485.378c0,0.528-0.428,0.957-0.957,0.957
			c-0.528,0-0.957-0.429-0.957-0.957c0-0.529,0.429-0.957,0.957-0.957C456.706,484.421,457.134,484.849,457.134,485.378"/>
		<path clip-path="url(#SVGID_6_)" fill="#2A3258" d="M83.994,505.47c0,0.529-0.429,0.957-0.957,0.957s-0.957-0.428-0.957-0.957
			c0-0.528,0.429-0.957,0.957-0.957S83.994,504.941,83.994,505.47"/>
		<path clip-path="url(#SVGID_6_)" fill="#2A3258" d="M108.87,505.47c0,0.529-0.429,0.957-0.957,0.957s-0.957-0.428-0.957-0.957
			c0-0.528,0.429-0.957,0.957-0.957S108.87,504.941,108.87,505.47"/>
		<path clip-path="url(#SVGID_6_)" fill="#2A3258" d="M133.746,505.47c0,0.529-0.429,0.957-0.957,0.957s-0.957-0.428-0.957-0.957
			c0-0.528,0.429-0.957,0.957-0.957S133.746,504.941,133.746,505.47"/>
		<path clip-path="url(#SVGID_6_)" fill="#2A3258" d="M158.622,505.47c0,0.529-0.429,0.957-0.957,0.957s-0.957-0.428-0.957-0.957
			c0-0.528,0.429-0.957,0.957-0.957S158.622,504.941,158.622,505.47"/>
		<path clip-path="url(#SVGID_6_)" fill="#2A3258" d="M183.498,505.47c0,0.529-0.429,0.957-0.957,0.957s-0.957-0.428-0.957-0.957
			c0-0.528,0.429-0.957,0.957-0.957S183.498,504.941,183.498,505.47"/>
		<path clip-path="url(#SVGID_6_)" fill="#2A3258" d="M208.374,505.47c0,0.529-0.429,0.957-0.957,0.957s-0.957-0.428-0.957-0.957
			c0-0.528,0.429-0.957,0.957-0.957S208.374,504.941,208.374,505.47"/>
		<path clip-path="url(#SVGID_6_)" fill="#2A3258" d="M233.25,505.47c0,0.529-0.429,0.957-0.957,0.957s-0.957-0.428-0.957-0.957
			c0-0.528,0.429-0.957,0.957-0.957S233.25,504.941,233.25,505.47"/>
		<path clip-path="url(#SVGID_6_)" fill="#2A3258" d="M258.126,505.47c0,0.529-0.428,0.957-0.957,0.957
			c-0.528,0-0.957-0.428-0.957-0.957c0-0.528,0.429-0.957,0.957-0.957C257.698,504.513,258.126,504.941,258.126,505.47"/>
		<path clip-path="url(#SVGID_6_)" fill="#2A3258" d="M283.002,505.47c0,0.529-0.428,0.957-0.957,0.957
			c-0.528,0-0.957-0.428-0.957-0.957c0-0.528,0.429-0.957,0.957-0.957C282.574,504.513,283.002,504.941,283.002,505.47"/>
		<path clip-path="url(#SVGID_6_)" fill="#2A3258" d="M307.878,505.47c0,0.529-0.428,0.957-0.957,0.957
			c-0.528,0-0.957-0.428-0.957-0.957c0-0.528,0.429-0.957,0.957-0.957C307.45,504.513,307.878,504.941,307.878,505.47"/>
		<path clip-path="url(#SVGID_6_)" fill="#2A3258" d="M332.754,505.47c0,0.529-0.428,0.957-0.957,0.957
			c-0.528,0-0.957-0.428-0.957-0.957c0-0.528,0.429-0.957,0.957-0.957C332.326,504.513,332.754,504.941,332.754,505.47"/>
		<path clip-path="url(#SVGID_6_)" fill="#2A3258" d="M357.63,505.47c0,0.529-0.428,0.957-0.957,0.957
			c-0.528,0-0.957-0.428-0.957-0.957c0-0.528,0.429-0.957,0.957-0.957C357.202,504.513,357.63,504.941,357.63,505.47"/>
		<path clip-path="url(#SVGID_6_)" fill="#2A3258" d="M382.506,505.47c0,0.529-0.428,0.957-0.957,0.957
			c-0.528,0-0.957-0.428-0.957-0.957c0-0.528,0.429-0.957,0.957-0.957C382.078,504.513,382.506,504.941,382.506,505.47"/>
		<path clip-path="url(#SVGID_6_)" fill="#2A3258" d="M407.382,505.47c0,0.529-0.428,0.957-0.957,0.957
			c-0.528,0-0.957-0.428-0.957-0.957c0-0.528,0.429-0.957,0.957-0.957C406.954,504.513,407.382,504.941,407.382,505.47"/>
		<path clip-path="url(#SVGID_6_)" fill="#2A3258" d="M432.258,505.47c0,0.529-0.428,0.957-0.957,0.957
			c-0.528,0-0.957-0.428-0.957-0.957c0-0.528,0.429-0.957,0.957-0.957C431.83,504.513,432.258,504.941,432.258,505.47"/>
		<path clip-path="url(#SVGID_6_)" fill="#2A3258" d="M457.134,505.47c0,0.529-0.428,0.957-0.957,0.957
			c-0.528,0-0.957-0.428-0.957-0.957c0-0.528,0.429-0.957,0.957-0.957C456.706,504.513,457.134,504.941,457.134,505.47"/>
		<path clip-path="url(#SVGID_6_)" fill="#2A3258" d="M83.994,525.562c0,0.528-0.429,0.957-0.957,0.957s-0.957-0.429-0.957-0.957
			c0-0.527,0.429-0.956,0.957-0.956S83.994,525.034,83.994,525.562"/>
		<path clip-path="url(#SVGID_6_)" fill="#2A3258" d="M108.87,525.562c0,0.528-0.429,0.957-0.957,0.957s-0.957-0.429-0.957-0.957
			c0-0.527,0.429-0.956,0.957-0.956S108.87,525.034,108.87,525.562"/>
		<path clip-path="url(#SVGID_6_)" fill="#2A3258" d="M133.746,525.562c0,0.528-0.429,0.957-0.957,0.957s-0.957-0.429-0.957-0.957
			c0-0.527,0.429-0.956,0.957-0.956S133.746,525.034,133.746,525.562"/>
		<path clip-path="url(#SVGID_6_)" fill="#2A3258" d="M158.622,525.562c0,0.528-0.429,0.957-0.957,0.957s-0.957-0.429-0.957-0.957
			c0-0.527,0.429-0.956,0.957-0.956S158.622,525.034,158.622,525.562"/>
		<path clip-path="url(#SVGID_6_)" fill="#2A3258" d="M183.498,525.562c0,0.528-0.429,0.957-0.957,0.957s-0.957-0.429-0.957-0.957
			c0-0.527,0.429-0.956,0.957-0.956S183.498,525.034,183.498,525.562"/>
		<path clip-path="url(#SVGID_6_)" fill="#2A3258" d="M208.374,525.562c0,0.528-0.429,0.957-0.957,0.957s-0.957-0.429-0.957-0.957
			c0-0.527,0.429-0.956,0.957-0.956S208.374,525.034,208.374,525.562"/>
		<path clip-path="url(#SVGID_6_)" fill="#2A3258" d="M233.25,525.562c0,0.528-0.429,0.957-0.957,0.957s-0.957-0.429-0.957-0.957
			c0-0.527,0.429-0.956,0.957-0.956S233.25,525.034,233.25,525.562"/>
		<path clip-path="url(#SVGID_6_)" fill="#2A3258" d="M258.126,525.562c0,0.528-0.428,0.957-0.957,0.957
			c-0.528,0-0.957-0.429-0.957-0.957c0-0.527,0.429-0.956,0.957-0.956C257.698,524.605,258.126,525.034,258.126,525.562"/>
		<path clip-path="url(#SVGID_6_)" fill="#2A3258" d="M283.002,525.562c0,0.528-0.428,0.957-0.957,0.957
			c-0.528,0-0.957-0.429-0.957-0.957c0-0.527,0.429-0.956,0.957-0.956C282.574,524.605,283.002,525.034,283.002,525.562"/>
		<path clip-path="url(#SVGID_6_)" fill="#2A3258" d="M307.878,525.562c0,0.528-0.428,0.957-0.957,0.957
			c-0.528,0-0.957-0.429-0.957-0.957c0-0.527,0.429-0.956,0.957-0.956C307.45,524.605,307.878,525.034,307.878,525.562"/>
		<path clip-path="url(#SVGID_6_)" fill="#2A3258" d="M332.754,525.562c0,0.528-0.428,0.957-0.957,0.957
			c-0.528,0-0.957-0.429-0.957-0.957c0-0.527,0.429-0.956,0.957-0.956C332.326,524.605,332.754,525.034,332.754,525.562"/>
		<path clip-path="url(#SVGID_6_)" fill="#2A3258" d="M357.63,525.562c0,0.528-0.428,0.957-0.957,0.957
			c-0.528,0-0.957-0.429-0.957-0.957c0-0.527,0.429-0.956,0.957-0.956C357.202,524.605,357.63,525.034,357.63,525.562"/>
		<path clip-path="url(#SVGID_6_)" fill="#2A3258" d="M382.506,525.562c0,0.528-0.428,0.957-0.957,0.957
			c-0.528,0-0.957-0.429-0.957-0.957c0-0.527,0.429-0.956,0.957-0.956C382.078,524.605,382.506,525.034,382.506,525.562"/>
		<path clip-path="url(#SVGID_6_)" fill="#2A3258" d="M407.382,525.562c0,0.528-0.428,0.957-0.957,0.957
			c-0.528,0-0.957-0.429-0.957-0.957c0-0.527,0.429-0.956,0.957-0.956C406.954,524.605,407.382,525.034,407.382,525.562"/>
		<path clip-path="url(#SVGID_6_)" fill="#2A3258" d="M432.258,525.562c0,0.528-0.428,0.957-0.957,0.957
			c-0.528,0-0.957-0.429-0.957-0.957c0-0.527,0.429-0.956,0.957-0.956C431.83,524.605,432.258,525.034,432.258,525.562"/>
		<path clip-path="url(#SVGID_6_)" fill="#2A3258" d="M457.134,525.562c0,0.528-0.428,0.957-0.957,0.957
			c-0.528,0-0.957-0.429-0.957-0.957c0-0.527,0.429-0.956,0.957-0.956C456.706,524.605,457.134,525.034,457.134,525.562"/>
		<path clip-path="url(#SVGID_6_)" fill="#2A3258" d="M83.994,545.654c0,0.528-0.429,0.957-0.957,0.957s-0.957-0.429-0.957-0.957
			s0.429-0.957,0.957-0.957S83.994,545.126,83.994,545.654"/>
		<path clip-path="url(#SVGID_6_)" fill="#2A3258" d="M108.87,545.654c0,0.528-0.429,0.957-0.957,0.957s-0.957-0.429-0.957-0.957
			s0.429-0.957,0.957-0.957S108.87,545.126,108.87,545.654"/>
		<path clip-path="url(#SVGID_6_)" fill="#2A3258" d="M133.746,545.654c0,0.528-0.429,0.957-0.957,0.957s-0.957-0.429-0.957-0.957
			s0.429-0.957,0.957-0.957S133.746,545.126,133.746,545.654"/>
		<path clip-path="url(#SVGID_6_)" fill="#2A3258" d="M158.622,545.654c0,0.528-0.429,0.957-0.957,0.957s-0.957-0.429-0.957-0.957
			s0.429-0.957,0.957-0.957S158.622,545.126,158.622,545.654"/>
		<path clip-path="url(#SVGID_6_)" fill="#2A3258" d="M183.498,545.654c0,0.528-0.429,0.957-0.957,0.957s-0.957-0.429-0.957-0.957
			s0.429-0.957,0.957-0.957S183.498,545.126,183.498,545.654"/>
		<path clip-path="url(#SVGID_6_)" fill="#2A3258" d="M208.374,545.654c0,0.528-0.429,0.957-0.957,0.957s-0.957-0.429-0.957-0.957
			s0.429-0.957,0.957-0.957S208.374,545.126,208.374,545.654"/>
		<path clip-path="url(#SVGID_6_)" fill="#2A3258" d="M233.25,545.654c0,0.528-0.429,0.957-0.957,0.957s-0.957-0.429-0.957-0.957
			s0.429-0.957,0.957-0.957S233.25,545.126,233.25,545.654"/>
		<path clip-path="url(#SVGID_6_)" fill="#2A3258" d="M258.126,545.654c0,0.528-0.428,0.957-0.957,0.957
			c-0.528,0-0.957-0.429-0.957-0.957s0.429-0.957,0.957-0.957C257.698,544.697,258.126,545.126,258.126,545.654"/>
		<path clip-path="url(#SVGID_6_)" fill="#2A3258" d="M283.002,545.654c0,0.528-0.428,0.957-0.957,0.957
			c-0.528,0-0.957-0.429-0.957-0.957s0.429-0.957,0.957-0.957C282.574,544.697,283.002,545.126,283.002,545.654"/>
		<path clip-path="url(#SVGID_6_)" fill="#2A3258" d="M307.878,545.654c0,0.528-0.428,0.957-0.957,0.957
			c-0.528,0-0.957-0.429-0.957-0.957s0.429-0.957,0.957-0.957C307.45,544.697,307.878,545.126,307.878,545.654"/>
		<path clip-path="url(#SVGID_6_)" fill="#2A3258" d="M332.754,545.654c0,0.528-0.428,0.957-0.957,0.957
			c-0.528,0-0.957-0.429-0.957-0.957s0.429-0.957,0.957-0.957C332.326,544.697,332.754,545.126,332.754,545.654"/>
		<path clip-path="url(#SVGID_6_)" fill="#2A3258" d="M357.63,545.654c0,0.528-0.428,0.957-0.957,0.957
			c-0.528,0-0.957-0.429-0.957-0.957s0.429-0.957,0.957-0.957C357.202,544.697,357.63,545.126,357.63,545.654"/>
		<path clip-path="url(#SVGID_6_)" fill="#2A3258" d="M382.506,545.654c0,0.528-0.428,0.957-0.957,0.957
			c-0.528,0-0.957-0.429-0.957-0.957s0.429-0.957,0.957-0.957C382.078,544.697,382.506,545.126,382.506,545.654"/>
		<path clip-path="url(#SVGID_6_)" fill="#2A3258" d="M407.382,545.654c0,0.528-0.428,0.957-0.957,0.957
			c-0.528,0-0.957-0.429-0.957-0.957s0.429-0.957,0.957-0.957C406.954,544.697,407.382,545.126,407.382,545.654"/>
		<path clip-path="url(#SVGID_6_)" fill="#2A3258" d="M432.258,545.654c0,0.528-0.428,0.957-0.957,0.957
			c-0.528,0-0.957-0.429-0.957-0.957s0.429-0.957,0.957-0.957C431.83,544.697,432.258,545.126,432.258,545.654"/>
		<path clip-path="url(#SVGID_6_)" fill="#2A3258" d="M457.134,545.654c0,0.528-0.428,0.957-0.957,0.957
			c-0.528,0-0.957-0.429-0.957-0.957s0.429-0.957,0.957-0.957C456.706,544.697,457.134,545.126,457.134,545.654"/>
		<path clip-path="url(#SVGID_6_)" fill="#2A3258" d="M83.994,565.747c0,0.527-0.429,0.956-0.957,0.956s-0.957-0.429-0.957-0.956
			c0-0.529,0.429-0.957,0.957-0.957S83.994,565.218,83.994,565.747"/>
		<path clip-path="url(#SVGID_6_)" fill="#2A3258" d="M108.87,565.747c0,0.527-0.429,0.956-0.957,0.956s-0.957-0.429-0.957-0.956
			c0-0.529,0.429-0.957,0.957-0.957S108.87,565.218,108.87,565.747"/>
		<path clip-path="url(#SVGID_6_)" fill="#2A3258" d="M133.746,565.747c0,0.527-0.429,0.956-0.957,0.956s-0.957-0.429-0.957-0.956
			c0-0.529,0.429-0.957,0.957-0.957S133.746,565.218,133.746,565.747"/>
		<path clip-path="url(#SVGID_6_)" fill="#2A3258" d="M158.622,565.747c0,0.527-0.429,0.956-0.957,0.956s-0.957-0.429-0.957-0.956
			c0-0.529,0.429-0.957,0.957-0.957S158.622,565.218,158.622,565.747"/>
		<path clip-path="url(#SVGID_6_)" fill="#2A3258" d="M183.498,565.747c0,0.527-0.429,0.956-0.957,0.956s-0.957-0.429-0.957-0.956
			c0-0.529,0.429-0.957,0.957-0.957S183.498,565.218,183.498,565.747"/>
		<path clip-path="url(#SVGID_6_)" fill="#2A3258" d="M208.374,565.747c0,0.527-0.429,0.956-0.957,0.956s-0.957-0.429-0.957-0.956
			c0-0.529,0.429-0.957,0.957-0.957S208.374,565.218,208.374,565.747"/>
		<path clip-path="url(#SVGID_6_)" fill="#2A3258" d="M233.25,565.747c0,0.527-0.429,0.956-0.957,0.956s-0.957-0.429-0.957-0.956
			c0-0.529,0.429-0.957,0.957-0.957S233.25,565.218,233.25,565.747"/>
		<path clip-path="url(#SVGID_6_)" fill="#2A3258" d="M258.126,565.747c0,0.527-0.428,0.956-0.957,0.956
			c-0.528,0-0.957-0.429-0.957-0.956c0-0.529,0.429-0.957,0.957-0.957C257.698,564.79,258.126,565.218,258.126,565.747"/>
		<path clip-path="url(#SVGID_6_)" fill="#2A3258" d="M283.002,565.747c0,0.527-0.428,0.956-0.957,0.956
			c-0.528,0-0.957-0.429-0.957-0.956c0-0.529,0.429-0.957,0.957-0.957C282.574,564.79,283.002,565.218,283.002,565.747"/>
		<path clip-path="url(#SVGID_6_)" fill="#2A3258" d="M307.878,565.747c0,0.527-0.428,0.956-0.957,0.956
			c-0.528,0-0.957-0.429-0.957-0.956c0-0.529,0.429-0.957,0.957-0.957C307.45,564.79,307.878,565.218,307.878,565.747"/>
		<path clip-path="url(#SVGID_6_)" fill="#2A3258" d="M332.754,565.747c0,0.527-0.428,0.956-0.957,0.956
			c-0.528,0-0.957-0.429-0.957-0.956c0-0.529,0.429-0.957,0.957-0.957C332.326,564.79,332.754,565.218,332.754,565.747"/>
		<path clip-path="url(#SVGID_6_)" fill="#2A3258" d="M357.63,565.747c0,0.527-0.428,0.956-0.957,0.956
			c-0.528,0-0.957-0.429-0.957-0.956c0-0.529,0.429-0.957,0.957-0.957C357.202,564.79,357.63,565.218,357.63,565.747"/>
		<path clip-path="url(#SVGID_6_)" fill="#2A3258" d="M382.506,565.747c0,0.527-0.428,0.956-0.957,0.956
			c-0.528,0-0.957-0.429-0.957-0.956c0-0.529,0.429-0.957,0.957-0.957C382.078,564.79,382.506,565.218,382.506,565.747"/>
		<path clip-path="url(#SVGID_6_)" fill="#2A3258" d="M407.382,565.747c0,0.527-0.428,0.956-0.957,0.956
			c-0.528,0-0.957-0.429-0.957-0.956c0-0.529,0.429-0.957,0.957-0.957C406.954,564.79,407.382,565.218,407.382,565.747"/>
		<path clip-path="url(#SVGID_6_)" fill="#2A3258" d="M432.258,565.747c0,0.527-0.428,0.956-0.957,0.956
			c-0.528,0-0.957-0.429-0.957-0.956c0-0.529,0.429-0.957,0.957-0.957C431.83,564.79,432.258,565.218,432.258,565.747"/>
		<path clip-path="url(#SVGID_6_)" fill="#2A3258" d="M457.134,565.747c0,0.527-0.428,0.956-0.957,0.956
			c-0.528,0-0.957-0.429-0.957-0.956c0-0.529,0.429-0.957,0.957-0.957C456.706,564.79,457.134,565.218,457.134,565.747"/>
		<rect x="82.662" y="504.514" clip-path="url(#SVGID_6_)" fill="#517DDF" width="0.75" height="61.233"/>
		<rect x="80.167" y="513.124" clip-path="url(#SVGID_6_)" fill="#517DDF" width="5.74" height="48.795"/>
		<rect x="132.414" y="449.977" clip-path="url(#SVGID_6_)" fill="#517DDF" width="0.75" height="77.021"/>
		<rect x="129.919" y="458.589" clip-path="url(#SVGID_6_)" fill="#517DDF" width="5.741" height="56.449"/>
		<rect x="94.144" y="492.075" clip-path="url(#SVGID_6_)" fill="#517DDF" width="0.75" height="40.663"/>
		<rect x="91.648" y="500.686" clip-path="url(#SVGID_6_)" fill="#517DDF" width="5.741" height="26.79"/>
		<rect x="169.728" y="427.015" clip-path="url(#SVGID_6_)" fill="#517DDF" width="0.75" height="40.663"/>
		<rect x="167.233" y="435.626" clip-path="url(#SVGID_6_)" fill="#517DDF" width="5.741" height="26.789"/>
		<rect x="319.286" y="415.533" clip-path="url(#SVGID_6_)" fill="#517DDF" width="0.75" height="40.663"/>
		<rect x="316.488" y="424.144" clip-path="url(#SVGID_6_)" fill="#517DDF" width="6.345" height="26.79"/>
		<rect x="442.709" y="390.657" clip-path="url(#SVGID_6_)" fill="#517DDF" width="0.75" height="40.663"/>
		<rect x="439.912" y="399.268" clip-path="url(#SVGID_6_)" fill="#517DDF" width="6.345" height="26.79"/>
		<rect x="331.422" y="424.145" clip-path="url(#SVGID_6_)" fill="#517DDF" width="0.75" height="50.23"/>
		<rect x="330.236" y="432.756" clip-path="url(#SVGID_6_)" fill="#517DDF" width="6.345" height="35.4"/>
		<rect x="343.86" y="436.583" clip-path="url(#SVGID_6_)" fill="#517DDF" width="0.75" height="50.23"/>
		<rect x="341.364" y="445.193" clip-path="url(#SVGID_6_)" fill="#517DDF" width="5.741" height="24.876"/>
		<rect x="381.174" y="455.718" clip-path="url(#SVGID_6_)" fill="#517DDF" width="0.75" height="50.23"/>
		<rect x="378.678" y="464.329" clip-path="url(#SVGID_6_)" fill="#517DDF" width="5.741" height="24.876"/>
		<rect x="393.612" y="431.32" clip-path="url(#SVGID_6_)" fill="#517DDF" width="0.75" height="65.06"/>
		<rect x="391.116" y="437.539" clip-path="url(#SVGID_6_)" fill="#517DDF" width="5.741" height="42.098"/>
		<rect x="244.356" y="524.605" clip-path="url(#SVGID_6_)" fill="#517DDF" width="0.75" height="40.662"/>
		<rect x="241.861" y="533.216" clip-path="url(#SVGID_6_)" fill="#517DDF" width="5.741" height="26.79"/>
		<rect x="256.794" y="494.467" clip-path="url(#SVGID_6_)" fill="#517DDF" width="0.75" height="54.536"/>
		<rect x="254.299" y="500.686" clip-path="url(#SVGID_6_)" fill="#517DDF" width="5.741" height="43.056"/>
		<rect x="269.71" y="480.594" clip-path="url(#SVGID_6_)" fill="#517DDF" width="0.75" height="54.536"/>
		<rect x="267.216" y="486.812" clip-path="url(#SVGID_6_)" fill="#FFFFFF" width="5.74" height="43.056"/>
		<path clip-path="url(#SVGID_6_)" fill="#517DDF" d="M273.331,530.243h-6.49v-43.806h6.49V530.243z M267.59,529.493h4.99v-42.306
			h-4.99V529.493z"/>
		<rect x="182.166" y="442.323" clip-path="url(#SVGID_6_)" fill="#517DDF" width="0.75" height="40.663"/>
		<rect x="179.671" y="450.934" clip-path="url(#SVGID_6_)" fill="#FFFFFF" width="5.741" height="26.79"/>
		<path clip-path="url(#SVGID_6_)" fill="#517DDF" d="M185.787,478.099h-6.491v-27.54h6.491V478.099z M180.046,477.349h4.991v-26.04
			h-4.991V477.349z"/>
		<rect x="406.05" y="418.403" clip-path="url(#SVGID_6_)" fill="#517DDF" width="0.75" height="40.663"/>
		<rect x="403.554" y="427.014" clip-path="url(#SVGID_6_)" fill="#FFFFFF" width="5.741" height="26.79"/>
		<path clip-path="url(#SVGID_6_)" fill="#517DDF" d="M409.67,454.179h-6.491v-27.54h6.491V454.179z M403.93,453.429h4.991v-26.04
			h-4.991V453.429z"/>
		<rect x="195.561" y="457.631" clip-path="url(#SVGID_6_)" fill="#517DDF" width="0.75" height="60.755"/>
		<rect x="193.065" y="466.243" clip-path="url(#SVGID_6_)" fill="#517DDF" width="5.741" height="46.403"/>
		<rect x="108.495" y="471.026" clip-path="url(#SVGID_6_)" fill="#00B0AA" width="0.75" height="61.232"/>
		<rect x="105.999" y="479.637" clip-path="url(#SVGID_6_)" fill="#00B0AA" width="5.741" height="48.795"/>
		<rect x="144.852" y="423.188" clip-path="url(#SVGID_6_)" fill="#00B0AA" width="0.75" height="61.233"/>
		<rect x="142.357" y="431.798" clip-path="url(#SVGID_6_)" fill="#00B0AA" width="5.741" height="14.353"/>
		<rect x="294.108" y="452.848" clip-path="url(#SVGID_6_)" fill="#00B0AA" width="0.75" height="61.233"/>
		<rect x="291.613" y="461.458" clip-path="url(#SVGID_6_)" fill="#00B0AA" width="5.741" height="14.352"/>
		<rect x="418.488" y="407.88" clip-path="url(#SVGID_6_)" fill="#00B0AA" width="0.75" height="61.233"/>
		<rect x="415.992" y="416.49" clip-path="url(#SVGID_6_)" fill="#00B0AA" width="5.741" height="14.352"/>
		<rect x="207.042" y="488.248" clip-path="url(#SVGID_6_)" fill="#00B0AA" width="0.75" height="30.138"/>
		<rect x="204.547" y="496.858" clip-path="url(#SVGID_6_)" fill="#00B0AA" width="5.741" height="14.352"/>
		<rect x="356.298" y="453.804" clip-path="url(#SVGID_6_)" fill="#00B0AA" width="0.75" height="30.139"/>
		<rect x="353.802" y="462.415" clip-path="url(#SVGID_6_)" fill="#00B0AA" width="5.741" height="14.352"/>
		<rect x="455.802" y="399.269" clip-path="url(#SVGID_6_)" fill="#00B0AA" width="0.75" height="30.139"/>
		<rect x="453.306" y="407.879" clip-path="url(#SVGID_6_)" fill="#00B0AA" width="5.741" height="14.353"/>
		<rect x="306.546" y="438.496" clip-path="url(#SVGID_6_)" fill="#00B0AA" width="0.75" height="30.138"/>
		<rect x="304.051" y="447.106" clip-path="url(#SVGID_6_)" fill="#FFFFFF" width="5.741" height="14.352"/>
		<path clip-path="url(#SVGID_6_)" fill="#00B0AA" d="M310.167,461.833h-6.491v-15.102h6.491V461.833z M304.426,461.083h4.991
			v-13.602h-4.991V461.083z"/>
		<rect x="368.736" y="464.328" clip-path="url(#SVGID_6_)" fill="#00B0AA" width="0.75" height="51.188"/>
		<rect x="366.24" y="472.94" clip-path="url(#SVGID_6_)" fill="#FFFFFF" width="5.741" height="37.792"/>
		<path clip-path="url(#SVGID_6_)" fill="#00B0AA" d="M372.356,511.107h-6.491v-38.542h6.491V511.107z M366.616,510.357h4.991
			v-37.042h-4.991V510.357z"/>
		<rect x="219.48" y="505.47" clip-path="url(#SVGID_6_)" fill="#00B0AA" width="0.75" height="43.533"/>
		<rect x="216.985" y="514.08" clip-path="url(#SVGID_6_)" fill="#00B0AA" width="5.741" height="26.79"/>
		<rect x="231.918" y="520.3" clip-path="url(#SVGID_6_)" fill="#00B0AA" width="0.75" height="34.444"/>
		<rect x="229.423" y="527.476" clip-path="url(#SVGID_6_)" fill="#00B0AA" width="5.741" height="19.136"/>
		<rect x="157.29" y="418.403" clip-path="url(#SVGID_6_)" fill="#00B0AA" width="0.75" height="53.101"/>
		<rect x="154.795" y="424.145" clip-path="url(#SVGID_6_)" fill="#00B0AA" width="5.741" height="41.142"/>
		<rect x="281.67" y="459.545" clip-path="url(#SVGID_6_)" fill="#00B0AA" width="0.75" height="53.102"/>
		<rect x="279.175" y="465.286" clip-path="url(#SVGID_6_)" fill="#00B0AA" width="5.741" height="41.141"/>
		<rect x="430.926" y="405.009" clip-path="url(#SVGID_6_)" fill="#00B0AA" width="0.75" height="53.102"/>
		<rect x="428.43" y="410.75" clip-path="url(#SVGID_6_)" fill="#00B0AA" width="5.741" height="41.141"/>
		<rect x="119.976" y="458.588" clip-path="url(#SVGID_6_)" fill="#00B0AA" width="0.75" height="40.663"/>
		<rect x="117.481" y="467.199" clip-path="url(#SVGID_6_)" fill="#FFFFFF" width="5.741" height="26.79"/>
		<path clip-path="url(#SVGID_6_)" fill="#00B0AA" d="M123.597,494.364h-6.491v-27.54h6.491V494.364z M117.856,493.614h4.991v-26.04
			h-4.991V493.614z"/>
		<rect x="90.527" y="608.558" clip-path="url(#SVGID_6_)" fill="#BFE6E8" width="82.606" height="20.928"/>
		<rect x="77.752" y="598.094" clip-path="url(#SVGID_6_)" fill="#2A378A" width="82.607" height="20.928"/>
		<rect x="476.879" y="363.466" clip-path="url(#SVGID_6_)" fill="#F9A326" width="82.606" height="20.927"/>
		<g opacity="0.1" clip-path="url(#SVGID_6_)">
			<g>
				<defs>
					<rect id="SVGID_7_" x="522.363" y="375.349" width="29.325" height="23.386"/>
				</defs>
				<clipPath id="SVGID_8_">
					<use xlink:href="#SVGID_7_"  overflow="visible"/>
				</clipPath>
				<path clip-path="url(#SVGID_8_)" d="M532.84,396.303c-5.777,0-10.477-4.701-10.477-10.478s4.7-10.477,10.477-10.477
					s10.477,4.7,10.477,10.477S538.617,396.303,532.84,396.303 M532.84,377.349c-4.674,0-8.477,3.803-8.477,8.477
					c0,4.675,3.803,8.478,8.477,8.478c4.674,0,8.477-3.803,8.477-8.478C541.317,381.151,537.514,377.349,532.84,377.349"/>
				
					<rect x="539.804" y="393.286" transform="matrix(0.8124 0.5831 -0.5831 0.8124 332.3185 -244.4186)" clip-path="url(#SVGID_8_)" width="12.471" height="2"/>
			</g>
		</g>
		<path clip-path="url(#SVGID_6_)" fill="#2A3258" d="M535.149,393.684c-5.777,0-10.477-4.701-10.477-10.478
			s4.7-10.477,10.477-10.477s10.477,4.7,10.477,10.477S540.926,393.684,535.149,393.684 M535.149,374.729
			c-4.674,0-8.477,3.803-8.477,8.477c0,4.675,3.803,8.478,8.477,8.478s8.477-3.803,8.477-8.478
			C543.626,378.532,539.823,374.729,535.149,374.729"/>
		
			<rect x="542.147" y="390.633" transform="matrix(0.8124 0.5831 -0.5831 0.8124 331.2111 -246.2828)" clip-path="url(#SVGID_6_)" fill="#2A3258" width="12.471" height="2"/>
		<g opacity="0.1" clip-path="url(#SVGID_6_)">
			<g>
				<defs>
					<rect id="SVGID_9_" x="484.597" y="585.393" width="35.777" height="41.581"/>
				</defs>
				<clipPath id="SVGID_10_">
					<use xlink:href="#SVGID_9_"  overflow="visible"/>
				</clipPath>
				<polygon clip-path="url(#SVGID_10_)" points="516.418,596.045 484.598,585.393 490.047,618.503 499.867,610.142 
					514.202,626.975 520.374,621.718 506.039,604.886 				"/>
			</g>
		</g>
		<polygon clip-path="url(#SVGID_6_)" fill="#2A378A" points="520.644,591.819 488.823,581.167 494.273,614.277 504.092,605.916 
			518.428,622.749 524.599,617.492 510.264,600.66 		"/>
		<rect x="560.089" y="450.193" clip-path="url(#SVGID_6_)" fill="#FFFFFF" width="30.184" height="30.184"/>
		<path clip-path="url(#SVGID_6_)" fill="#2A3258" d="M590.523,480.627h-30.684v-30.684h30.684V480.627z M560.339,480.127h29.684
			v-29.684h-29.684V480.127z"/>
		<rect x="476.282" y="296.86" clip-path="url(#SVGID_6_)" fill="#2A3258" width="1" height="16.903"/>
		<rect x="467.727" y="304.812" clip-path="url(#SVGID_6_)" fill="#2A3258" width="18.11" height="1"/>
		
			<rect x="10.215" y="665.796" transform="matrix(0.7076 0.7066 -0.7066 0.7076 480.8055 190.0944)" clip-path="url(#SVGID_6_)" fill="#2A3258" width="0.999" height="20.404"/>
		
			<rect x="0.5" y="675.468" transform="matrix(0.7071 0.7071 -0.7071 0.7071 481.1205 190.3812)" clip-path="url(#SVGID_6_)" fill="#2A3258" width="20.488" height="1"/>
		<polygon clip-path="url(#SVGID_6_)" fill="#F9A326" points="798.373,670.152 802.652,606.466 783.243,597 774.255,664.691 		"/>
		<path clip-path="url(#SVGID_6_)" fill="#F95F30" d="M816.458,686.207c0,0,17.106,10.854,5.221,18.75s-38.929,9.848-44.318,4.317
			c-5.391-5.53-45.125-0.088-50.904,2.323c-5.119,2.135-27.344,5.269-48.471-4.104c-5.953-2.641-10.919-7.294-13.261-13.37
			c-1.037-2.694-1.458-5.351-0.144-6.95C668.084,682.907,809.141,679.451,816.458,686.207"/>
		<path clip-path="url(#SVGID_6_)" fill="#2A3258" d="M805.192,645.823c0,0,12.976,16.912,11.697,36.561
			c-0.139,2.128-1.972,3.75-4.103,3.682c-10.057-0.32-38.528-0.756-57.021,3.674c-20.037,4.801-67.461,11.474-89.213,3.087
			c-3.303-1.273-3.329-5.957-0.075-7.348c6.3-2.692,17.744-7.684,38.109-16.803c33.237-14.882,52.955-32.749,58.258-37.918
			c0.956-0.932,2.295-1.331,3.601-1.057c5.534,1.159,19.615,4.827,15.812,11.517c-4.705,8.275-7.13,18.016,4.101,16.436
			c7.33-1.031,8.844-6.882,9.011-10.819c0.099-2.305,2.042-4.121,4.336-3.883C801.713,643.159,803.908,643.88,805.192,645.823"/>
		<path clip-path="url(#SVGID_6_)" fill="#FA7A5D" d="M801.066,695.51c-0.034,2.645,2.083,4.816,4.728,4.851
			c2.646,0.034,4.817-2.083,4.852-4.729c0.034-2.645-2.083-4.816-4.729-4.851C803.272,690.747,801.101,692.863,801.066,695.51"/>
		<path clip-path="url(#SVGID_6_)" fill="#FA7A5D" d="M790.592,702.561c-1.352,2.273-0.605,5.213,1.669,6.564
			c2.274,1.353,5.213,0.605,6.565-1.669c1.352-2.273,0.604-5.213-1.67-6.565C794.884,699.539,791.943,700.287,790.592,702.561"/>
		<path clip-path="url(#SVGID_6_)" fill="#FA7A5D" d="M778.725,695.504c-1.352,2.274-0.605,5.213,1.669,6.565
			c2.274,1.352,5.213,0.604,6.565-1.67c1.352-2.272,0.604-5.213-1.67-6.564C783.017,692.482,780.076,693.229,778.725,695.504"/>
		<polygon clip-path="url(#SVGID_6_)" fill="#F9A326" points="1184.08,584.753 1136.673,542.012 1117.232,551.411 1164.874,600.332 
					"/>
		<path clip-path="url(#SVGID_6_)" fill="#F95F30" d="M1207.88,580.467c0,0,19.108-6.733,17.964,7.49
			c-1.145,14.223-16.331,36.684-24.011,37.501c-7.679,0.816-27.97,35.41-29.649,41.442c-1.488,5.344-12.766,24.748-33.195,35.559
			c-5.755,3.045-12.483,4.071-18.707,2.154c-2.76-0.852-5.106-2.163-5.552-4.186C1113.543,695.036,1198.046,582.04,1207.88,580.467"
			/>
		<path clip-path="url(#SVGID_6_)" fill="#2A3258" d="M1169.176,564.351c0,0,21.314,0.259,35.966,13.413
			c1.587,1.425,1.729,3.867,0.356,5.501c-6.47,7.705-24.416,29.812-32.369,47.085c-8.617,18.716-32.696,60.114-52.737,72.023
			c-3.042,1.809-6.739-1.067-5.819-4.484c1.777-6.617,4.931-18.697,10.357-40.341c8.855-35.324,7.005-61.869,6.221-69.232
			c-0.141-1.327,0.373-2.626,1.396-3.482c4.334-3.633,15.923-12.432,18.829-5.306c3.594,8.814,9.751,16.743,15.451,6.94
			c3.723-6.399,0.061-11.206-2.931-13.773c-1.751-1.501-1.977-4.151-0.371-5.808
			C1164.931,565.437,1166.854,564.157,1169.176,564.351"/>
		<path clip-path="url(#SVGID_6_)" fill="#FA7A5D" d="M1205.673,598.314c2.059,1.662,5.074,1.342,6.736-0.716
			c1.661-2.058,1.342-5.073-0.716-6.736c-2.059-1.662-5.074-1.342-6.736,0.717C1203.295,593.637,1203.615,596.652,1205.673,598.314"
			/>
		<path clip-path="url(#SVGID_6_)" fill="#FA7A5D" d="M1204.738,610.907c0.951,2.468,3.723,3.699,6.191,2.748
			c2.469-0.952,3.699-3.724,2.748-6.192s-3.724-3.698-6.192-2.748C1205.018,605.666,1203.787,608.438,1204.738,610.907"/>
		<path clip-path="url(#SVGID_6_)" fill="#FA7A5D" d="M1191.854,615.87c0.951,2.47,3.724,3.699,6.192,2.748
			c2.468-0.95,3.698-3.724,2.746-6.191c-0.95-2.469-3.722-3.699-6.19-2.748S1190.903,613.402,1191.854,615.87"/>
		<path clip-path="url(#SVGID_6_)" fill="#2A378A" d="M631.832,60.245c9.481,0.504,18.355-1.23,25.696-4.534
			c7.232-3.255,15.709-4.832,24.269-4.832h0.934c8.593,0,16.93,1.833,24.248,5.034c6.402,2.801,13.937,4.418,22.006,4.418
			s15.604-1.617,22.006-4.418c7.318-3.201,15.655-5.034,24.248-5.034h0.935c8.559,0,17.036,1.577,24.268,4.832
			c7.34,3.304,16.214,5.038,25.696,4.534c21.174-1.126,38.025-13.595,38.832-28.683c0.912-17.065-18.271-31.104-42.066-31.104
			c-8.136,0-15.729,1.644-22.166,4.488c-7.193,3.179-15.429,4.965-23.898,4.965h-1.788c-8.47,0-16.705-1.786-23.899-4.965
			c-6.437-2.844-14.03-4.488-22.166-4.488s-15.729,1.644-22.166,4.488c-7.193,3.179-15.43,4.965-23.899,4.965h-1.787
			c-8.47,0-16.706-1.786-23.9-4.965c-6.436-2.844-14.029-4.488-22.166-4.488c-23.794,0-42.097,11.23-42.066,31.104
			C593.027,49.215,610.66,59.119,631.832,60.245"/>
		
			<rect x="839.794" y="47.435" transform="matrix(-0.9378 0.3472 -0.3472 -0.9378 1665.0146 -178.4444)" clip-path="url(#SVGID_6_)" fill="#F9A326" width="17.401" height="25.031"/>
		<path clip-path="url(#SVGID_6_)" fill="#606060" d="M851.853,48.021l-12.859,11.325l1.954,5.276c0,0,5.528-1.556,7.35-4.644
			C850.119,56.89,847.988,57.607,851.853,48.021"/>
		<path clip-path="url(#SVGID_6_)" fill="#F9A326" d="M842.08,25.69c0,0-5.579-0.248-9.907,3.021
			c-4.603,3.477-6.161,9.697-3.813,14.966l5.639,12.882c1.249,2.804,4.53,4.069,7.337,2.824c2.685-1.19,5.859-2.974,8.139-5.434
			C854.223,48.823,856.675,27.14,842.08,25.69"/>
		<path clip-path="url(#SVGID_6_)" fill="#2A378A" d="M824.965,22.75c0,0,9.657,22.724,28.404,15.907
			C853.378,38.653,857.347,13.661,824.965,22.75"/>
		<path clip-path="url(#SVGID_6_)" fill="#BFE6E8" d="M913.99,188.98c7.616-23.162,27.475-38.333,48.049-38.717
			c-9.325-27.464-30.464-52.829-47.224-57.795c-13.29-3.938-23.134-3.321-29.58-1.775c-5.146,1.233-9.621,4.379-12.59,8.759
			l-0.153,0.225c-5.616,8.286-4.535,19.19,2.155,26.636c6.832,7.602,9.771,19.625-10.894,35.522
			c-18.783,14.448-103.5,72.398-103.5,72.398l8.904,29.678c0,0,87.013-15.24,144.964-37.096
			C910.052,215.416,909.688,202.066,913.99,188.98"/>
		<path clip-path="url(#SVGID_6_)" fill="#00B0AA" d="M963.95,194.592c4.798-13.366,3.237-29.166-1.911-44.329
			c-20.574,0.385-40.433,15.556-48.049,38.718c-4.303,13.086-3.938,26.435,0.132,37.835
			C939.817,217.124,959.807,206.134,963.95,194.592"/>
		<path clip-path="url(#SVGID_6_)" fill="#517DDF" d="M856.277,249.358c-0.168,0-0.319-0.112-0.363-0.282
			c-0.051-0.2,0.07-0.405,0.27-0.456c47.234-12.114,105.072-30.827,112.383-51.187c3.325-9.269,5.451-25.122-3.314-48.012
			c-0.073-0.193,0.023-0.41,0.217-0.484c0.191-0.074,0.409,0.023,0.484,0.216c8.848,23.104,6.688,39.145,3.317,48.533
			c-7.42,20.67-65.49,39.502-112.899,51.66C856.339,249.354,856.308,249.358,856.277,249.358"/>
		<path clip-path="url(#SVGID_6_)" fill="#517DDF" d="M781.029,221.128c-0.081,0-0.16-0.039-0.208-0.111
			c-0.077-0.115-0.046-0.27,0.069-0.347c0.757-0.507,75.941-50.877,92.54-63.378c10.233-7.708,14.974-15.227,14.087-22.346
			c-1.396-11.198-16.467-17.648-16.618-17.712c-0.127-0.053-0.188-0.2-0.134-0.327c0.054-0.128,0.198-0.187,0.326-0.134
			c0.155,0.065,15.488,6.625,16.922,18.11c0.912,7.31-3.895,14.984-14.282,22.808c-16.61,12.51-91.806,62.887-92.563,63.395
			C781.125,221.114,781.077,221.128,781.029,221.128"/>
		<path clip-path="url(#SVGID_6_)" fill="#2A378A" d="M866,278l88.505-13.271c0,0,23.495,45.271,48.495,59.271s42,13,58,48
			s71,112,90,110s45,42,45,42l-101,71c0,0-95-53-95-66s-18-61-30-70S865.263,299.636,866,278"/>
		<path clip-path="url(#SVGID_6_)" fill="#2A378A" d="M866,278l75.301,69.383c0,0-26.062,37.674-26.668,63.733
			c-0.607,26.059,7.33,39.46-13.728,66.828c-21.059,27.367-59.065,103.664-49.493,118.278c9.571,14.615-14.428,53.804-14.428,53.804
			l-98.799-52.908c0,0,2.148-98.941,12.468-104.278c10.318-5.337,40.854-39.667,42.956-53.111
			C795.71,426.285,848.517,286.284,866,278"/>
		<path clip-path="url(#SVGID_6_)" fill="#2A3258" d="M692.515,233.831l-1.312-7.953c-0.198-1.2,0.696-2.304,1.911-2.359
			l58.501-4.641l-4.089,12.442L692.515,233.831z"/>
		<path clip-path="url(#SVGID_6_)" fill="#00B0AA" d="M740.949,206.132l-38.306,5.828l0.243,3.882
			c0.093,1.476-0.99,2.764-2.459,2.926l-3.036,0.335l3.08,18.208c0.173,1.023,1.129,1.722,2.157,1.579l42.206-5.914
			c1.054-0.148,1.786-1.126,1.631-2.178l-3.392-23.041C742.923,206.729,741.98,206.009,740.949,206.132"/>
		<path clip-path="url(#SVGID_6_)" d="M702.355,239.034c-0.984,0-1.838-0.702-2.007-1.702l-3.103-18.339l3.167-0.349
			c1.406-0.155,2.437-1.382,2.349-2.793l-0.25-3.997l0.112-0.017l38.312-5.829c1.105-0.132,2.101,0.629,2.263,1.731l3.391,23.041
			c0.08,0.542-0.057,1.082-0.385,1.521c-0.329,0.439-0.809,0.723-1.353,0.799l-42.205,5.914
			C702.548,239.027,702.451,239.034,702.355,239.034 M697.537,219.213l3.058,18.077c0.163,0.963,1.046,1.611,2.017,1.476
			l42.206-5.914c0.477-0.067,0.897-0.315,1.186-0.701c0.289-0.385,0.409-0.859,0.339-1.335l-3.391-23.041
			c-0.143-0.966-1.004-1.636-1.985-1.519l-38.19,5.811l0.236,3.768c0.097,1.545-1.032,2.888-2.57,3.057L697.537,219.213z"/>
		<path clip-path="url(#SVGID_6_)" d="M705.85,235.062l-0.014-0.129c-0.007-0.066-0.19-1.625-2.691-2.094l-0.087-0.017l-0.014-0.088
			c-1.964-13.023-1.747-13.09-1.618-13.131c0.027-0.008,0.12-0.026,0.182,0.1l-0.091,0.045l0.056,0.027
			c-0.104,0.427,0.959,7.875,1.706,12.835c2.228,0.45,2.692,1.752,2.785,2.17l4.114-0.573l0.034,0.248L705.85,235.062z
			 M701.473,219.769l-0.09,0.044c0.007,0.01,0.047,0.039,0.103,0.033L701.473,219.769z"/>
		
			<rect x="705.263" y="212.781" transform="matrix(0.1991 0.98 -0.98 0.1991 775.9541 -518.8063)" clip-path="url(#SVGID_6_)" width="0.25" height="5.105"/>
		<path clip-path="url(#SVGID_6_)" d="M721.606,232.097c-1.152,0-2.306-0.214-3.411-0.644c-2.34-0.911-4.186-2.678-5.196-4.976
			s-1.066-4.853-0.156-7.193c0.91-2.34,2.678-4.185,4.976-5.196c2.3-1.011,4.853-1.067,7.192-0.156
			c2.341,0.91,4.187,2.677,5.196,4.975c1.012,2.298,1.067,4.853,0.157,7.193c-0.911,2.34-2.678,4.186-4.977,5.196
			C724.176,231.829,722.893,232.097,721.606,232.097 M721.6,213.537c-1.251,0-2.501,0.26-3.681,0.779
			c-2.237,0.985-3.957,2.781-4.843,5.059c-0.886,2.278-0.832,4.764,0.15,7.001c0.985,2.237,2.781,3.957,5.06,4.843
			c2.277,0.887,4.764,0.833,7.002-0.151c2.236-0.985,3.957-2.781,4.842-5.059c0.888-2.278,0.833-4.764-0.15-7.001
			c-0.984-2.237-2.781-3.957-5.06-4.843C723.844,213.746,722.721,213.537,721.6,213.537"/>
		<path clip-path="url(#SVGID_6_)" d="M736.262,230.456l-0.029-0.248l4.221-0.495c0.056-0.437,0.376-2.099,2.024-2.533
			l-2.189-14.677c-0.389-0.075-1.886-0.415-2.466-1.302c-0.191-0.294-0.264-0.618-0.215-0.965l-4.414,0.884l-0.049-0.246
			l4.793-0.959l-0.05,0.193c-0.092,0.354-0.044,0.667,0.144,0.956c0.594,0.909,2.368,1.205,2.387,1.208l0.09,0.015l0.014,0.09
			l2.238,14.995l-0.114,0.025c-1.814,0.4-1.95,2.353-1.954,2.436l-0.007,0.104L736.262,230.456z"/>
		
			<rect x="699.893" y="211.098" transform="matrix(0.8056 0.5925 -0.5925 0.8056 263.7809 -372.8359)" clip-path="url(#SVGID_6_)" width="0.25" height="8.867"/>
		<path clip-path="url(#SVGID_6_)" fill="#2A3258" d="M745.301,218.572c-0.443,0.088-0.678,0.57-0.479,0.976
			c0.894,1.814,2.034,6.165-7.179,6.705c-13.579,0.795-35.08,3.016-43.429,4.313c-1.918,0.298-3.215,2.113-2.888,4.026l5.688,33.228
			c0.326,1.901,2.136,3.176,4.036,2.841l58.634-11.462c1.864-0.363,3.066-2.185,2.668-4.042l-7.762-36.212
			c-0.313-1.182-1.49-1.917-2.688-1.68L745.301,218.572z"/>
		<path clip-path="url(#SVGID_6_)" fill="#00B0AA" d="M727.646,139.794c-0.293-0.008-0.546,0.191-0.593,0.48
			c-0.483,2.929-3.503,17.993-15.571,26.689c-0.271,0.195-0.108,0.622,0.224,0.591l20.303-1.776
			c0.315-0.028,0.602-0.188,0.788-0.443c1.821-2.484,11.374-16.102,11.34-28.394c-0.001-0.407-0.421-0.679-0.799-0.528
			C741.003,137.348,733.85,139.975,727.646,139.794"/>
		<path clip-path="url(#SVGID_6_)" d="M711.672,167.681c-0.188,0-0.354-0.114-0.421-0.294c-0.072-0.193-0.01-0.404,0.157-0.525
			c12.021-8.661,15.039-23.684,15.522-26.608c0.056-0.342,0.348-0.585,0.698-0.585c0.007,0,0.014,0,0.021,0
			c6.244,0.189,13.551-2.535,15.643-3.372c0.219-0.087,0.467-0.061,0.663,0.072c0.194,0.131,0.307,0.34,0.307,0.572
			c0.035,12.297-9.46,25.872-11.364,28.468c-0.207,0.283-0.526,0.463-0.877,0.494l-20.304,1.776
			C711.701,167.68,711.688,167.681,711.672,167.681 M727.629,139.919c-0.228,0-0.416,0.156-0.451,0.375
			c-0.486,2.941-3.522,18.052-15.622,26.771c-0.093,0.066-0.098,0.165-0.071,0.234c0.026,0.07,0.098,0.144,0.209,0.131l20.305-1.776
			c0.279-0.025,0.533-0.168,0.697-0.392c1.896-2.586,11.352-16.101,11.316-28.32c0-0.148-0.071-0.282-0.196-0.366
			c-0.128-0.087-0.289-0.104-0.431-0.047c-2.035,0.814-8.987,3.399-15.134,3.399c-0.204,0-0.406-0.003-0.608-0.009
			C727.638,139.919,727.633,139.919,727.629,139.919"/>
		<path clip-path="url(#SVGID_6_)" d="M727.148,147.293l-0.242-0.058l0.872-3.709l0.139,0.061c0.225,0.102,0.438,0.106,0.649,0.013
			c0.67-0.294,1.059-1.44,1.062-1.452l0.023-0.07l0.072-0.014l10.9-2.029l0.008,0.141c0.077,1.258,1.422,1.582,1.436,1.585
			l0.101,0.023l-0.126,3.102l-0.25-0.01l0.118-2.9c-0.33-0.107-1.367-0.527-1.515-1.644l-10.556,1.965
			c-0.101,0.272-0.499,1.235-1.172,1.532c-0.232,0.101-0.472,0.114-0.715,0.04L727.148,147.293z"/>
		<path clip-path="url(#SVGID_6_)" d="M717.125,165.395l0.359-0.276c0.445-0.342,0.682-0.692,0.702-1.042
			c0.022-0.39-0.234-0.646-0.237-0.649l-0.083-0.08l3.409-4.126l0.192,0.159l-3.269,3.956c0.099,0.131,0.258,0.398,0.236,0.755
			c-0.019,0.328-0.184,0.648-0.489,0.955l12.293-1.431c0.116-0.266,0.568-1.204,1.258-1.461c0.248-0.093,0.498-0.089,0.747,0.012
			l2.502-3.942l0.211,0.134l-2.622,4.131l-0.102-0.053c-0.221-0.113-0.432-0.129-0.649-0.048c-0.684,0.255-1.137,1.378-1.142,1.389
			l-0.027,0.07l-0.074,0.008L717.125,165.395z"/>
		<path clip-path="url(#SVGID_6_)" fill="#00B0AA" d="M587.535,199.335c0.358-0.298,0.87-0.295,1.214,0.02
			c3.484,3.194,22.068,19.099,45.735,18.136c0.53-0.022,0.745,0.672,0.3,0.959l-27.183,17.726c-0.421,0.275-0.937,0.355-1.421,0.22
			c-4.723-1.323-30.073-8.996-42.109-24.431c-0.398-0.511-0.14-1.264,0.482-1.446C568.395,209.395,579.938,205.656,587.535,199.335"
			/>
		<path clip-path="url(#SVGID_6_)" d="M606.647,236.585c-0.168,0-0.337-0.023-0.502-0.069c-4.933-1.381-30.147-9.052-42.174-24.474
			c-0.212-0.273-0.273-0.619-0.166-0.951c0.108-0.334,0.374-0.594,0.711-0.692c13.631-3.987,21.003-9.55,22.938-11.16
			c0.411-0.341,0.99-0.332,1.378,0.023c3.379,3.098,20.967,18.146,43.585,18.146c0.682,0,1.369-0.014,2.061-0.042
			c0.301-0.019,0.549,0.163,0.639,0.448c0.092,0.287-0.014,0.578-0.267,0.741L607.67,236.28
			C607.363,236.481,607.007,236.585,606.647,236.585 M587.615,199.431c-1.944,1.618-9.351,7.208-23.027,11.208
			c-0.258,0.075-0.461,0.273-0.544,0.529c-0.081,0.252-0.035,0.514,0.126,0.721c11.978,15.36,37.124,23.009,42.043,24.386
			c0.448,0.125,0.929,0.052,1.32-0.204l27.182-17.726c0.189-0.122,0.207-0.322,0.165-0.456c-0.044-0.138-0.166-0.289-0.392-0.273
			c-23.708,0.963-42.331-14.966-45.825-18.169C588.37,199.177,587.928,199.17,587.615,199.431"/>
		<path clip-path="url(#SVGID_6_)" d="M574.558,219.813l-3.166-3.714l0.065-0.081c0.058-0.073,1.412-1.793,0.243-3.484l-0.08-0.117
			l15.641-8.164l0.062,0.041c0.016,0.011,1.657,1.082,2.815,0.786c0.373-0.096,0.659-0.329,0.851-0.692l0.07-0.134l4.669,3.734
			l-0.156,0.196l-4.437-3.549c-0.223,0.354-0.537,0.585-0.935,0.687c-1.147,0.293-2.627-0.576-2.953-0.779l-15.263,7.966
			c0.996,1.59-0.003,3.2-0.271,3.581l3.035,3.561L574.558,219.813z"/>
		<path clip-path="url(#SVGID_6_)" d="M603.923,232.285l-0.108-0.039l-7.173-2.539l0.083-0.235l7.069,2.502
			c0.203-0.384,0.509-0.644,0.911-0.771c1.129-0.357,2.653,0.425,2.991,0.61l17.033-10.424c-0.775-0.056-1.354-0.294-1.725-0.713
			c-0.393-0.445-0.431-0.961-0.426-1.188l-8.041-1.758l0.053-0.244l8.258,1.805l-0.014,0.114c-0.001,0.006-0.075,0.619,0.36,1.109
			c0.385,0.432,1.057,0.639,1.956,0.637l0.453-0.005L607.7,232.104l-0.064-0.038c-0.017-0.01-1.714-0.988-2.856-0.625
			c-0.367,0.117-0.639,0.365-0.81,0.74L603.923,232.285z"/>
		<path clip-path="url(#SVGID_6_)" fill="#FFFFFF" d="M786.542,622.813l-0.991-0.131l0.395-2.979l0.991,0.131L786.542,622.813z
			 M787.33,616.854l-0.991-0.131l0.395-2.979l0.99,0.13L787.33,616.854z M788.118,610.893l-0.992-0.131l0.395-2.98l0.991,0.132
			L788.118,610.893z M788.906,604.932l-0.991-0.13l0.393-2.98l0.991,0.131L788.906,604.932z M789.693,598.972l-0.991-0.131
			l0.394-2.98l0.991,0.132L789.693,598.972z M790.48,593.012l-0.99-0.131l0.394-2.981l0.991,0.131L790.48,593.012z M791.269,587.051
			l-0.991-0.131l0.394-2.98l0.992,0.131L791.269,587.051z M792.057,581.09l-0.992-0.131l0.395-2.98l0.991,0.131L792.057,581.09z
			 M792.844,575.13l-0.991-0.131l0.395-2.981l0.991,0.131L792.844,575.13z M793.632,569.169l-0.991-0.131l0.395-2.98l0.991,0.131
			L793.632,569.169z M794.419,563.208l-0.991-0.131l0.395-2.98l0.99,0.131L794.419,563.208z M795.207,557.248l-0.991-0.131
			l0.314-2.287l0.272-0.758l0.941,0.341l-0.255,0.706L795.207,557.248z M796.765,551.586l-0.94-0.34l1.021-2.828l0.941,0.34
			L796.765,551.586z M798.807,545.93l-0.94-0.339l1.021-2.828l0.941,0.34L798.807,545.93z M800.849,540.275l-0.94-0.34l1.021-2.828
			l0.941,0.34L800.849,540.275z M802.891,534.62l-0.939-0.34l1.021-2.827l0.94,0.34L802.891,534.62z M804.933,528.966l-0.939-0.34
			l1.021-2.828l0.94,0.34L804.933,528.966z M806.975,523.311l-0.939-0.34l1.021-2.828l0.94,0.34L806.975,523.311z M809.017,517.655
			l-0.939-0.34l1.021-2.828l0.94,0.341L809.017,517.655z M811.059,512.001l-0.939-0.34l1.021-2.828l0.94,0.34L811.059,512.001z
			 M813.101,506.346l-0.939-0.34l1.021-2.827l0.941,0.339L813.101,506.346z M815.144,500.69l-0.94-0.34l1.021-2.828l0.941,0.34
			L815.144,500.69z M817.186,495.035l-0.94-0.34l1.021-2.827l0.941,0.34L817.186,495.035z M819.228,489.381l-0.94-0.34l1.021-2.828
			l0.941,0.34L819.228,489.381z M821.27,483.726l-0.94-0.34l1.021-2.828l0.941,0.34L821.27,483.726z M823.312,478.07l-0.94-0.34
			l1.021-2.827l0.941,0.34L823.312,478.07z M825.354,472.416l-0.939-0.34l1.021-2.828l0.94,0.34L825.354,472.416z M827.396,466.761
			l-0.939-0.34l1.021-2.827l0.94,0.339L827.396,466.761z M829.438,461.105l-0.939-0.34l1.021-2.828l0.94,0.34L829.438,461.105z
			 M831.48,455.451l-0.94-0.341l1.021-2.826l0.94,0.339L831.48,455.451z M833.521,449.796l-0.939-0.34l1.088-2.889l0.871,0.491
			l-0.105,0.188L833.521,449.796z M836.017,444.439l-0.871-0.491l1.476-2.619l0.871,0.491L836.017,444.439z M838.968,439.201
			l-0.871-0.491l1.476-2.619l0.871,0.491L838.968,439.201z M841.919,433.963l-0.871-0.491l1.476-2.619l0.871,0.491L841.919,433.963z
			 M844.87,428.725l-0.871-0.491l1.476-2.619l0.871,0.491L844.87,428.725z M847.821,423.486l-0.871-0.491l1.476-2.619l0.871,0.492
			L847.821,423.486z M850.771,418.248l-0.87-0.491l1.476-2.619l0.871,0.491L850.771,418.248z M853.724,413.01l-0.871-0.491
			l1.476-2.619l0.871,0.491L853.724,413.01z M856.674,407.771l-0.871-0.491l1.477-2.619l0.871,0.491L856.674,407.771z
			 M859.625,402.534l-0.871-0.492l1.477-2.619l0.87,0.491L859.625,402.534z M862.577,397.295l-0.871-0.491l1.475-2.619l0.871,0.491
			L862.577,397.295z M865.528,392.057l-0.871-0.491l1.475-2.619l0.871,0.491L865.528,392.057z M868.479,386.818l-0.87-0.491
			l1.476-2.619l0.871,0.491L868.479,386.818z M871.43,381.58l-0.871-0.491l1.477-2.619l0.871,0.491L871.43,381.58z M874.381,376.342
			l-0.871-0.491l1.477-2.619l0.871,0.491L874.381,376.342z M877.333,371.104l-0.872-0.491l1.476-2.619l0.871,0.491L877.333,371.104z
			 M880.284,365.865l-0.871-0.491l1.475-2.619l0.871,0.491L880.284,365.865z M883.235,360.627l-0.871-0.491l1.475-2.619l0.871,0.491
			L883.235,360.627z M886.186,355.389l-0.871-0.491l1.477-2.619l0.871,0.491L886.186,355.389z M889.137,350.151l-0.871-0.491
			l1.477-2.62l0.871,0.492L889.137,350.151z M892.088,344.912l-0.871-0.491l1.477-2.619l0.871,0.491L892.088,344.912z
			 M895.04,339.674l-0.872-0.491l1.476-2.619l0.871,0.491L895.04,339.674z M897.991,334.436l-0.871-0.491l1.475-2.619l0.871,0.491
			L897.991,334.436z M900.942,329.198l-0.871-0.492l1.475-2.619l0.871,0.491L900.942,329.198z M903.893,323.958l-0.871-0.491
			l1.477-2.619l0.871,0.491L903.893,323.958z M906.844,318.721l-0.871-0.491l1.477-2.619l0.871,0.491L906.844,318.721z
			 M909.795,313.483l-0.871-0.491l1.476-2.619l0.871,0.491L909.795,313.483z M912.746,308.244l-0.871-0.491l1.476-2.619l0.871,0.491
			L912.746,308.244z M914.503,302.43l-1-0.001l0.004-3.006l1,0.001L914.503,302.43z M914.511,296.417l-1-0.001l0.004-3.006l1,0.001
			L914.511,296.417z M914.519,290.405l-1-0.001l0.003-3.006l1,0.001L914.519,290.405z M914.526,284.393l-1-0.001l0.004-3.006
			l1,0.001L914.526,284.393z M914.534,278.38l-1-0.001l0.004-3.006l1,0.001L914.534,278.38z M914.542,272.368l-1-0.001l0.002-1.571
			l1,0.001L914.542,272.368z"/>
		<path clip-path="url(#SVGID_6_)" fill="#FFFFFF" d="M1138.296,564.705l-2.248-1.997l0.664-0.748l2.248,1.997L1138.296,564.705z
			 M1133.801,560.713l-2.248-1.997l0.664-0.748l2.248,1.997L1133.801,560.713z M1129.306,556.72l-2.248-1.996l0.664-0.748
			l2.248,1.996L1129.306,556.72z M1124.811,552.727l-2.248-1.996l0.664-0.748l2.248,1.996L1124.811,552.727z M1120.315,548.733
			l-2.248-1.996l0.664-0.748l2.248,1.996L1120.315,548.733z M1115.82,544.741l-2.248-1.997l0.664-0.748l2.248,1.997L1115.82,544.741
			z M1111.325,540.748l-2.249-1.996l0.665-0.749l2.248,1.997L1111.325,540.748z M1106.828,536.756l-2.246-1.997l0.663-0.747
			l2.248,1.997L1106.828,536.756z M1102.334,532.763l-2.247-1.996l0.663-0.748l2.248,1.996L1102.334,532.763z M1097.839,528.771
			l-2.247-1.997l0.664-0.748l2.247,1.997L1097.839,528.771z M1093.344,524.776l-2.247-1.996l0.664-0.748l2.247,1.997
			L1093.344,524.776z M1088.849,520.784l-2.247-1.997l0.664-0.747l2.247,1.996L1088.849,520.784z M1084.354,516.791l-2.247-1.996
			l0.664-0.747l2.247,1.996L1084.354,516.791z M1079.858,512.799l-2.247-1.996l0.664-0.748l2.247,1.996L1079.858,512.799z
			 M1075.363,508.807l-2.248-1.996l0.664-0.748l2.248,1.996L1075.363,508.807z M1070.868,504.813l-2.249-1.997l0.665-0.748
			l2.248,1.997L1070.868,504.813z M1066.373,500.82l-2.248-1.996l0.664-0.748l2.247,1.996L1066.373,500.82z M1061.878,496.828
			l-2.248-1.997l0.664-0.748l2.247,1.997L1061.878,496.828z M1057.383,492.835l-2.248-1.996l0.664-0.748l2.248,1.995
			L1057.383,492.835z M1052.888,488.843l-2.248-1.996l0.664-0.748l2.248,1.996L1052.888,488.843z M1048.393,484.85l-2.352-2.148
			l0.486-0.231l0.305-0.344l2.225,1.976L1048.393,484.85z M1044.832,479.912l-1.197-2.757l0.918-0.398l1.197,2.758L1044.832,479.912
			z M1042.438,474.397l-1.197-2.758l0.918-0.398l1.197,2.758L1042.438,474.397z M1040.045,468.882l-1.197-2.758l0.918-0.398
			l1.197,2.758L1040.045,468.882z M1037.651,463.366l-1.198-2.758l0.918-0.398l1.198,2.759L1037.651,463.366z M1035.258,457.851
			l-1.196-2.758l0.918-0.397l1.196,2.758L1035.258,457.851z M1032.864,452.335l-1.196-2.758l0.918-0.397l1.196,2.758
			L1032.864,452.335z M1030.471,446.82l-1.196-2.758l0.918-0.398l1.196,2.758L1030.471,446.82z M1028.077,441.305l-1.196-2.758
			l0.918-0.398l1.195,2.758L1028.077,441.305z M1025.684,435.789l-1.196-2.758l0.918-0.397l1.196,2.757L1025.684,435.789z
			 M1023.289,430.273l-0.225-0.521l-1.39-1.858l0.801-0.6l1.483,2.008l0.248,0.574L1023.289,430.273z M1019.875,425.484l-1.8-2.407
			l0.801-0.599l1.8,2.408L1019.875,425.484z M1016.276,420.669l-1.8-2.407l0.801-0.6l1.8,2.408L1016.276,420.669z M1012.677,415.854
			l-1.8-2.409l0.801-0.598l1.8,2.408L1012.677,415.854z M1009.077,411.037l-1.8-2.408l0.8-0.599l1.801,2.408L1009.077,411.037z
			 M1005.478,406.222l-1.799-2.408l0.801-0.599l1.799,2.407L1005.478,406.222z M1001.879,401.405l-1.801-2.408l0.802-0.599
			l1.8,2.408L1001.879,401.405z M998.279,396.589l-1.8-2.407l0.801-0.6l1.799,2.408L998.279,396.589z M994.68,391.773l-1.8-2.408
			l0.801-0.599l1.8,2.408L994.68,391.773z M991.08,386.957l-1.799-2.407l0.801-0.6l1.8,2.408L991.08,386.957z M987.481,382.142
			l-1.8-2.409l0.801-0.598l1.8,2.407L987.481,382.142z M983.882,377.325l-1.8-2.408l0.801-0.599l1.8,2.408L983.882,377.325z
			 M980.282,372.51l-1.799-2.408l0.801-0.6l1.799,2.408L980.282,372.51z M976.684,367.692l-1.8-2.407l0.801-0.599l1.8,2.408
			L976.684,367.692z M973.084,362.877l-1.8-2.407l0.801-0.6l1.8,2.408L973.084,362.877z M969.484,358.062l-1.799-2.408l0.801-0.599
			l1.799,2.408L969.484,358.062z M965.886,353.246l-1.8-2.409l0.801-0.598l1.8,2.408L965.886,353.246z M962.285,348.429
			l-1.799-2.408l0.8-0.599l1.801,2.408L962.285,348.429z M958.687,343.613l-1.8-2.408l0.801-0.599l1.8,2.408L958.687,343.613z
			 M955.088,338.796l-1.801-2.407l0.802-0.599l1.8,2.408L955.088,338.796z M951.363,334.532l-2.737-1.244l0.413-0.91l2.738,1.244
			L951.363,334.532z M945.89,332.044l-2.737-1.244l0.414-0.91l2.737,1.244L945.89,332.044z"/>
		<path clip-path="url(#SVGID_6_)" fill="#F9A326" d="M768.97,262.974l-7.562,4.348c0,0-37.291,26.572-42.474,2.232
			c-0.832-3.909,6.361-6.802,13.276-10.998c6.915-4.197,11.461-4.721,4.975-2.367c-1.312,0.475-0.297-1.334,1.329-3.603
			c3.439-4.798,8.739-7.939,14.594-8.685c5.672-0.722,9.146-0.731,9.146-0.731L768.97,262.974z"/>
		<polygon clip-path="url(#SVGID_6_)" points="725.262,278.316 724.979,277.357 736.091,274.072 747.655,268.365 748.098,269.264 
			736.453,275.001 		"/>
		<polygon clip-path="url(#SVGID_6_)" points="721.489,274.052 721.207,273.093 732.319,269.808 743.885,264.101 744.326,264.999 
			732.683,270.737 		"/>
		<polygon clip-path="url(#SVGID_6_)" points="721.408,268.805 721.126,267.846 732.238,264.561 743.803,258.854 744.245,259.75 
			732.601,265.49 		"/>
		<path clip-path="url(#SVGID_6_)" fill="#2A3258" d="M838.5,47c-2.481,0-4.5-2.019-4.5-4.5s2.019-4.5,4.5-4.5
			c2.48,0,4.5,2.019,4.5,4.5S840.98,47,838.5,47 M838.5,39c-1.93,0-3.5,1.57-3.5,3.5s1.57,3.5,3.5,3.5s3.5-1.57,3.5-3.5
			S840.43,39,838.5,39"/>
		<path clip-path="url(#SVGID_6_)" fill="#2A3258" d="M828.5,49c-2.481,0-4.5-2.019-4.5-4.5s2.019-4.5,4.5-4.5
			c2.48,0,4.5,2.019,4.5,4.5S830.98,49,828.5,49 M828.5,41c-1.93,0-3.5,1.57-3.5,3.5s1.57,3.5,3.5,3.5s3.5-1.57,3.5-3.5
			S830.43,41,828.5,41"/>
		
			<rect x="847" y="33.41" transform="matrix(0.447 0.8945 -0.8945 0.447 503.5381 -736.5436)" clip-path="url(#SVGID_6_)" fill="#2A3258" width="1.001" height="11.18"/>
	</g>
</g>
</svg>
